<svg width="17" height="16" viewBox="0 0 17 16" fill="none" xmlns="http://www.w3.org/2000/svg">
<path d="M7.78653 8.7589L1.72129 8.75881C1.32667 8.7589 1.00773 8.43996 1.00781 8.04536C1.00781 7.65077 1.32676 7.33183 1.72129 7.33183H7.78662L7.78653 1.26658C7.78662 0.871955 8.10547 0.553101 8.50007 0.553101C8.89466 0.553006 9.2136 0.871955 9.21352 1.26658L9.2136 7.33183L15.2788 7.33191C15.6734 7.33183 15.9924 7.65077 15.9923 8.04536C15.9924 8.2421 15.9126 8.42078 15.7834 8.54998C15.6543 8.6791 15.4757 8.7589 15.2788 8.7589L9.2136 8.75881V14.8241C9.2136 15.021 9.1338 15.1996 9.00469 15.3287C8.87549 15.4579 8.69689 15.5376 8.50007 15.5376C8.10547 15.5377 7.78653 15.2187 7.78662 14.8241L7.78653 8.7589Z" fill="white" stroke="white" stroke-width="0.431818"/>
</svg>
