<svg width="43" height="43" viewBox="0 0 43 43" fill="none" xmlns="http://www.w3.org/2000/svg">
<rect x="0.629883" y="0.75" width="41" height="41" rx="20.5" stroke="#E2E4EC"/>
<g clip-path="url(#clip0_1_1032)">
<path d="M28.6899 27.28C28.5219 26.356 28.2099 25.492 27.7539 24.688C27.2979 23.884 26.7099 23.194 25.9899 22.618C25.3659 22.078 24.6339 21.646 23.7939 21.322C24.3699 20.878 24.8259 20.329 25.1619 19.675C25.4979 19.021 25.6659 18.322 25.6659 17.578C25.6659 16.714 25.4559 15.919 25.0359 15.193C24.6159 14.467 24.0429 13.894 23.3169 13.474C22.5909 13.054 21.7959 12.844 20.9319 12.844C20.0679 12.844 19.2729 13.054 18.5469 13.474C17.8209 13.894 17.2479 14.467 16.8279 15.193C16.4079 15.919 16.1979 16.714 16.1979 17.578C16.1979 18.322 16.3659 19.021 16.7019 19.675C17.0379 20.329 17.4939 20.878 18.0699 21.322C17.2659 21.658 16.5399 22.09 15.8919 22.618C15.1959 23.194 14.6139 23.878 14.1459 24.67C13.6779 25.462 13.3599 26.302 13.1919 27.19L12.9219 28.612L14.4699 28.918L14.7579 27.514C14.8899 26.782 15.1389 26.104 15.5049 25.48C15.8709 24.856 16.3419 24.307 16.9179 23.833C17.4939 23.359 18.1269 22.999 18.8169 22.753C19.5069 22.507 20.2119 22.384 20.9319 22.384C21.6519 22.384 22.3659 22.51 23.0739 22.762C23.7819 23.014 24.4119 23.368 24.9639 23.824C25.5399 24.304 26.0139 24.865 26.3859 25.507C26.7579 26.149 27.0039 26.83 27.1239 27.55L27.3939 28.954L28.9239 28.648L28.6899 27.28ZM20.9319 14.41C21.5079 14.41 22.0389 14.551 22.5249 14.833C23.0109 15.115 23.3949 15.499 23.6769 15.985C23.9589 16.471 24.0999 17.002 24.0999 17.578C24.0999 18.154 23.9589 18.685 23.6769 19.171C23.3949 19.657 23.0109 20.041 22.5249 20.323C22.0389 20.605 21.5079 20.746 20.9319 20.746C20.3559 20.746 19.8249 20.605 19.3389 20.323C18.8529 20.041 18.4689 19.657 18.1869 19.171C17.9049 18.685 17.7639 18.154 17.7639 17.578C17.7639 17.002 17.9049 16.471 18.1869 15.985C18.4689 15.499 18.8529 15.115 19.3389 14.833C19.8249 14.551 20.3559 14.41 20.9319 14.41Z" fill="#3E445A"/>
</g>
<defs>
<clipPath id="clip0_1_1032">
<rect width="18" height="18" fill="white" transform="matrix(1 0 0 -1 12.1299 30.25)"/>
</clipPath>
</defs>
</svg>
