<svg width="23" height="22" viewBox="0 0 23 22" fill="none" xmlns="http://www.w3.org/2000/svg">
<g opacity="0.5" clip-path="url(#clip0_1_1070)">
<path d="M20.6061 11.22C20.4154 10.9853 20.3201 10.714 20.3201 10.406C20.3201 10.098 20.4081 9.81934 20.5841 9.57001C20.9361 9.08601 21.1084 8.55434 21.1011 7.97501C21.0937 7.39567 20.9177 6.87501 20.5731 6.41301C20.2284 5.95101 19.7701 5.63201 19.1981 5.45601C18.9047 5.36801 18.6664 5.19934 18.4831 4.95001C18.2997 4.70067 18.2154 4.42201 18.2301 4.11401C18.2301 3.51267 18.0541 2.98101 17.7021 2.51901C17.3501 2.05701 16.8991 1.73801 16.3491 1.56201C15.7991 1.38601 15.2381 1.40067 14.6661 1.60601C14.3874 1.70867 14.1014 1.71234 13.8081 1.61701C13.5147 1.52167 13.2801 1.34934 13.1041 1.10001C12.7521 0.616007 12.3011 0.289673 11.7511 0.121006C11.2011 -0.0476608 10.6474 -0.0439949 10.0901 0.132006C9.53274 0.308006 9.0854 0.64534 8.74807 1.14401C8.57207 1.39334 8.34107 1.56567 8.05507 1.66101C7.76907 1.75634 7.4794 1.76001 7.18607 1.67201C6.61407 1.48134 6.05674 1.48134 5.51407 1.67201C4.9714 1.86267 4.52774 2.19267 4.18307 2.66201C3.8384 3.13134 3.6734 3.66667 3.68807 4.26801C3.70274 4.56134 3.62207 4.83267 3.44607 5.08201C3.27007 5.33134 3.0354 5.50734 2.74207 5.61001C2.17007 5.78601 1.7154 6.11234 1.37807 6.58901C1.04074 7.06567 0.87207 7.59367 0.87207 8.17301C0.87207 8.75234 1.0554 9.28401 1.42207 9.76801C1.61274 10.0027 1.70807 10.2703 1.70807 10.571C1.70807 10.8717 1.62007 11.1467 1.44407 11.396C1.19474 11.748 1.0334 12.1403 0.96007 12.573C0.886737 13.0057 0.919737 13.4273 1.05907 13.838C1.1984 14.2487 1.42574 14.6043 1.74107 14.905C2.0564 15.2057 2.4194 15.4147 2.83007 15.532C3.10874 15.62 3.33974 15.7887 3.52307 16.038C3.7064 16.2873 3.79807 16.5587 3.79807 16.852C3.79807 17.4533 3.97407 17.985 4.32607 18.447C4.67807 18.909 5.12907 19.2317 5.67907 19.415C6.22907 19.5983 6.79007 19.5873 7.36207 19.382C7.6554 19.2793 7.94507 19.2757 8.23107 19.371C8.51707 19.4663 8.74807 19.6387 8.92407 19.888C9.27607 20.372 9.72707 20.6983 10.2771 20.867C10.8271 21.0357 11.3807 21.0283 11.9381 20.845C12.4954 20.6617 12.9427 20.328 13.2801 19.844C13.4561 19.5947 13.6907 19.4187 13.9841 19.316C14.2774 19.2133 14.5634 19.2133 14.8421 19.316C15.4141 19.5067 15.9714 19.5067 16.5141 19.316C17.0567 19.1253 17.5004 18.7953 17.8451 18.326C18.1897 17.8567 18.3547 17.3213 18.3401 16.72C18.3254 16.412 18.4061 16.1333 18.5821 15.884C18.7581 15.6347 18.9927 15.466 19.2861 15.378C19.8581 15.1873 20.3091 14.8573 20.6391 14.388C20.9691 13.9187 21.1341 13.3943 21.1341 12.815C21.1341 12.2357 20.9581 11.704 20.6061 11.22ZM18.9121 14.146C18.3547 14.322 17.9001 14.652 17.5481 15.136C17.1961 15.62 17.0274 16.1553 17.0421 16.742C17.0421 17.05 16.9577 17.3287 16.7891 17.578C16.6204 17.8273 16.3931 17.9997 16.1071 18.095C15.8211 18.1903 15.5314 18.1867 15.2381 18.084C14.6807 17.908 14.1197 17.9153 13.5551 18.106C12.9904 18.2967 12.5467 18.6267 12.2241 19.096C12.0481 19.36 11.8171 19.536 11.5311 19.624C11.2451 19.712 10.9591 19.712 10.6731 19.624C10.3871 19.536 10.1561 19.3673 9.98007 19.118C9.62807 18.6487 9.16974 18.326 8.60507 18.15C8.0404 17.974 7.4794 17.9813 6.92207 18.172C6.62874 18.2747 6.33907 18.2783 6.05307 18.183C5.76707 18.0877 5.53607 17.919 5.36007 17.677C5.18407 17.435 5.09607 17.16 5.09607 16.852C5.09607 16.2653 4.92007 15.7337 4.56807 15.257C4.21607 14.7803 3.7614 14.4613 3.20407 14.3C2.98407 14.2413 2.7934 14.1313 2.63207 13.97C2.47074 13.8087 2.3534 13.6253 2.28007 13.42C2.20674 13.2147 2.1884 13.002 2.22507 12.782C2.26174 12.562 2.34607 12.3567 2.47807 12.166C2.83007 11.6967 3.0024 11.165 2.99507 10.571C2.98774 9.97701 2.80807 9.44534 2.45607 8.97601C2.2654 8.72667 2.17007 8.45534 2.17007 8.16201C2.17007 7.86867 2.2544 7.59734 2.42307 7.34801C2.59174 7.09867 2.82274 6.93001 3.11607 6.84201C3.6734 6.65134 4.12807 6.31401 4.48007 5.83001C4.83207 5.34601 5.00074 4.81067 4.98607 4.22401C4.98607 3.91601 5.0704 3.64101 5.23907 3.39901C5.40774 3.15701 5.63507 2.98834 5.92107 2.89301C6.20707 2.79767 6.49674 2.80134 6.79007 2.90401C7.3474 3.08001 7.9084 3.07267 8.47307 2.88201C9.03774 2.69134 9.4814 2.35401 9.80407 1.87001C9.98007 1.62067 10.2111 1.45201 10.4971 1.36401C10.7831 1.27601 11.0691 1.27234 11.3551 1.35301C11.6411 1.43367 11.8721 1.59867 12.0481 1.84801C12.4001 2.33201 12.8584 2.66201 13.4231 2.83801C13.9877 3.01401 14.5487 3.00667 15.1061 2.81601C15.3994 2.71334 15.6891 2.70967 15.9751 2.80501C16.2611 2.90034 16.4921 3.06534 16.6681 3.30001C16.8441 3.53467 16.9321 3.80601 16.9321 4.11401C16.9321 4.70067 17.1081 5.23234 17.4601 5.70901C17.8121 6.18567 18.2667 6.51201 18.8241 6.68801C19.1174 6.77601 19.3557 6.94101 19.5391 7.18301C19.7224 7.42501 19.8141 7.69634 19.8141 7.99701C19.8141 8.29767 19.7261 8.57267 19.5501 8.82201C19.1981 9.29134 19.0257 9.82301 19.0331 10.417C19.0404 11.011 19.2201 11.5427 19.5721 12.012C19.7627 12.2613 19.8581 12.5327 19.8581 12.826C19.8581 13.1193 19.7737 13.3907 19.6051 13.64C19.4364 13.8893 19.2054 14.058 18.9121 14.146ZM11.0141 5.10401C10.8381 5.10401 10.6877 5.16634 10.5631 5.29101C10.4384 5.41567 10.3761 5.57334 10.3761 5.76401V6.00601C10.3761 6.18201 10.4384 6.33601 10.5631 6.46801C10.6877 6.60001 10.8381 6.66601 11.0141 6.66601C11.1901 6.66601 11.3404 6.60001 11.4651 6.46801C11.5897 6.33601 11.6521 6.18201 11.6521 6.00601V5.76401C11.6521 5.57334 11.5897 5.41567 11.4651 5.29101C11.3404 5.16634 11.1901 5.10401 11.0141 5.10401ZM11.0141 14.322C10.8381 14.322 10.6877 14.3843 10.5631 14.509C10.4384 14.6337 10.3761 14.784 10.3761 14.96V15.224C10.3761 15.4 10.4384 15.5503 10.5631 15.675C10.6877 15.7997 10.8381 15.862 11.0141 15.862C11.1901 15.862 11.3404 15.7997 11.4651 15.675C11.5897 15.5503 11.6521 15.4 11.6521 15.224V14.96C11.6521 14.784 11.5897 14.6337 11.4651 14.509C11.3404 14.3843 11.1901 14.322 11.0141 14.322ZM14.1821 7.96401C14.3434 7.96401 14.4974 7.90534 14.6441 7.78801L14.8201 7.59001C14.9374 7.47267 14.9961 7.32234 14.9961 7.13901C14.9961 6.95567 14.9374 6.80167 14.8201 6.67701C14.7027 6.55234 14.5524 6.49001 14.3691 6.49001C14.1857 6.49001 14.0354 6.55601 13.9181 6.68801L13.7201 6.86401C13.6027 6.99601 13.5441 7.15001 13.5441 7.32601C13.5441 7.50201 13.6101 7.65234 13.7421 7.77701C13.8741 7.90167 14.0207 7.96401 14.1821 7.96401ZM7.38407 13.2L7.20807 13.376C7.09074 13.508 7.03207 13.662 7.03207 13.838C7.03207 14.014 7.09074 14.1643 7.20807 14.289C7.3254 14.4137 7.4794 14.476 7.67007 14.476C7.86074 14.476 8.0074 14.4173 8.11007 14.3L8.30807 14.124C8.4254 13.992 8.48407 13.838 8.48407 13.662C8.48407 13.486 8.4254 13.332 8.30807 13.2C8.19074 13.068 8.0404 13.0057 7.85707 13.013C7.67374 13.0203 7.51607 13.0827 7.38407 13.2ZM15.7441 9.85601H15.5021C15.3114 9.85601 15.1537 9.91834 15.0291 10.043C14.9044 10.1677 14.8421 10.318 14.8421 10.494C14.8421 10.67 14.9044 10.8203 15.0291 10.945C15.1537 11.0697 15.3114 11.132 15.5021 11.132H15.7441C15.9201 11.132 16.0741 11.0697 16.2061 10.945C16.3381 10.8203 16.4041 10.67 16.4041 10.494C16.4041 10.318 16.3381 10.1677 16.2061 10.043C16.0741 9.91834 15.9201 9.85601 15.7441 9.85601ZM6.52607 9.85601H6.28407C6.0934 9.85601 5.93574 9.91834 5.81107 10.043C5.6864 10.1677 5.62407 10.318 5.62407 10.494C5.62407 10.67 5.6864 10.8203 5.81107 10.945C5.93574 11.0697 6.0934 11.132 6.28407 11.132H6.52607C6.71674 11.132 6.8744 11.0697 6.99907 10.945C7.12374 10.8203 7.18607 10.67 7.18607 10.494C7.18607 10.318 7.12374 10.1677 6.99907 10.043C6.8744 9.91834 6.71674 9.85601 6.52607 9.85601ZM14.6441 13.2C14.5121 13.0827 14.3581 13.024 14.1821 13.024C14.0061 13.024 13.8557 13.0863 13.7311 13.211C13.6064 13.3357 13.5441 13.486 13.5441 13.662C13.5441 13.838 13.6027 13.992 13.7201 14.124L13.9181 14.3C14.0207 14.4173 14.1674 14.476 14.3581 14.476C14.5487 14.476 14.7027 14.4137 14.8201 14.289C14.9374 14.1643 14.9961 14.014 14.9961 13.838C14.9961 13.662 14.9374 13.508 14.8201 13.376L14.6441 13.2ZM8.11007 6.68801C7.99274 6.55601 7.8424 6.49001 7.65907 6.49001C7.47574 6.49001 7.3254 6.55234 7.20807 6.67701C7.09074 6.80167 7.03207 6.95567 7.03207 7.13901C7.03207 7.32234 7.09074 7.47267 7.20807 7.59001L7.38407 7.78801C7.53074 7.90534 7.68474 7.96401 7.84607 7.96401C8.0074 7.96401 8.15407 7.90167 8.28607 7.77701C8.41807 7.65234 8.48407 7.50201 8.48407 7.32601C8.48407 7.15001 8.4254 6.99601 8.30807 6.86401L8.11007 6.68801Z" fill="currentColor"/>
</g>
<defs>
<clipPath id="clip0_1_1070">
<rect width="22" height="22" fill="white" transform="matrix(1 0 0 -1 0.52002 22)"/>
</clipPath>
</defs>
</svg>
