<svg width="23" height="22" viewBox="0 0 23 22" fill="none" xmlns="http://www.w3.org/2000/svg">
<g opacity="0.5" clip-path="url(#clip0_1_1075)">
<path d="M17.38 7.81H2.35404C2.13404 7.81 1.94704 7.887 1.79304 8.041C1.63904 8.195 1.56204 8.382 1.56204 8.602V13.684C1.56204 15.1947 1.94338 16.5953 2.70604 17.886C3.43938 19.1327 4.42938 20.1227 5.67604 20.856C6.96671 21.6187 8.36738 22 9.87805 22C11.3887 22 12.7894 21.6187 14.08 20.856C15.3267 20.1227 16.3167 19.1327 17.05 17.886C17.798 16.5953 18.172 15.1947 18.172 13.684V8.602C18.172 8.382 18.095 8.195 17.941 8.041C17.787 7.887 17.6 7.81 17.38 7.81ZM16.588 13.684C16.588 14.9013 16.28 16.0307 15.664 17.072C15.0774 18.0987 14.278 18.9053 13.266 19.492C12.2247 20.108 11.0954 20.416 9.87805 20.416C8.66071 20.416 7.53138 20.108 6.49005 19.492C5.47804 18.9053 4.67138 18.0987 4.07004 17.072C3.45404 16.0307 3.14604 14.9013 3.14604 13.684V9.394H16.588V13.684ZM19.536 11.044H17.38V12.628H19.536C19.932 12.628 20.2767 12.7747 20.57 13.068C20.8634 13.3613 21.01 13.7097 21.01 14.113C21.01 14.5163 20.8634 14.8647 20.57 15.158C20.2767 15.4513 19.932 15.598 19.536 15.598H16.852V17.182H19.536C20.0787 17.182 20.5847 17.0427 21.054 16.764C21.5234 16.4853 21.8974 16.1113 22.176 15.642C22.4547 15.1727 22.594 14.663 22.594 14.113C22.594 13.563 22.4547 13.0533 22.176 12.584C21.8974 12.1147 21.5234 11.7407 21.054 11.462C20.5847 11.1833 20.0787 11.044 19.536 11.044ZM9.87805 0C9.65804 0 9.47104 0.0769997 9.31705 0.231001C9.16304 0.385 9.08605 0.572001 9.08605 0.792V4.554C9.08605 4.774 9.16304 4.961 9.31705 5.115C9.47104 5.269 9.65804 5.346 9.87805 5.346C10.098 5.346 10.285 5.269 10.439 5.115C10.593 4.961 10.67 4.774 10.67 4.554V0.792C10.67 0.572001 10.593 0.385 10.439 0.231001C10.285 0.0769997 10.098 0 9.87805 0ZM13.64 1.276C13.42 1.276 13.233 1.353 13.079 1.507C12.925 1.661 12.848 1.84067 12.848 2.046V5.83C12.848 6.05 12.925 6.237 13.079 6.391C13.233 6.545 13.42 6.622 13.64 6.622C13.86 6.622 14.047 6.545 14.201 6.391C14.355 6.237 14.432 6.05 14.432 5.83V2.046C14.432 1.84067 14.355 1.661 14.201 1.507C14.047 1.353 13.86 1.276 13.64 1.276ZM6.09404 1.276C5.87404 1.276 5.68705 1.353 5.53304 1.507C5.37905 1.661 5.30204 1.84067 5.30204 2.046V5.83C5.30204 6.05 5.37905 6.237 5.53304 6.391C5.68705 6.545 5.87404 6.622 6.09404 6.622C6.31404 6.622 6.50104 6.545 6.65505 6.391C6.80904 6.237 6.88604 6.05 6.88604 5.83V2.046C6.88604 1.84067 6.80904 1.661 6.65505 1.507C6.50104 1.353 6.31404 1.276 6.09404 1.276ZM17.776 20.416H1.73804C1.53271 20.416 1.34938 20.493 1.18804 20.647C1.02671 20.801 0.946045 20.988 0.946045 21.208C0.946045 21.428 1.02671 21.615 1.18804 21.769C1.34938 21.923 1.53271 22 1.73804 22H17.776C17.996 22 18.183 21.923 18.337 21.769C18.491 21.615 18.568 21.428 18.568 21.208C18.568 20.988 18.491 20.801 18.337 20.647C18.183 20.493 17.996 20.416 17.776 20.416Z" fill="#3E445A"/>
</g>
<defs>
<clipPath id="clip0_1_1075">
<rect width="22" height="22" fill="white" transform="matrix(1 0 0 -1 0.77002 22)"/>
</clipPath>
</defs>
</svg>
