<svg width="23" height="16" viewBox="0 0 23 16" fill="none" xmlns="http://www.w3.org/2000/svg">
<path d="M16.81 10.2875C16.3113 10.2875 15.8493 10.4122 15.424 10.6615C14.9986 10.9108 14.6613 11.2518 14.412 11.6845C14.1626 12.1172 14.038 12.5828 14.038 13.0815C14.038 13.5802 14.1626 14.0422 14.412 14.4675C14.6613 14.8928 14.9986 15.2302 15.424 15.4795C15.8493 15.7288 16.3113 15.8535 16.81 15.8535C17.3086 15.8535 17.7706 15.7288 18.196 15.4795C18.6213 15.2302 18.9586 14.8928 19.208 14.4675C19.4573 14.0422 19.582 13.5802 19.582 13.0815C19.582 12.5828 19.4573 12.1208 19.208 11.6955C18.9586 11.2702 18.6213 10.9292 18.196 10.6725C17.7706 10.4158 17.3086 10.2875 16.81 10.2875ZM16.81 14.4675C16.4433 14.4675 16.1206 14.3282 15.842 14.0495C15.5633 13.7708 15.424 13.4445 15.424 13.0705C15.424 12.6965 15.5596 12.3738 15.831 12.1025C16.1023 11.8312 16.4286 11.6955 16.81 11.6955C17.1913 11.6955 17.5176 11.8312 17.789 12.1025C18.0603 12.3738 18.196 12.7002 18.196 13.0815C18.196 13.4628 18.0603 13.7892 17.789 14.0605C17.5176 14.3318 17.1913 14.4675 16.81 14.4675ZM7.34995 10.2875C6.85128 10.2875 6.38928 10.4122 5.96395 10.6615C5.53862 10.9108 5.20128 11.2518 4.95195 11.6845C4.70262 12.1172 4.57795 12.5828 4.57795 13.0815C4.57795 13.5802 4.70262 14.0422 4.95195 14.4675C5.20128 14.8928 5.53862 15.2302 5.96395 15.4795C6.38928 15.7288 6.85128 15.8535 7.34995 15.8535C7.84862 15.8535 8.31062 15.7288 8.73595 15.4795C9.16128 15.2302 9.49862 14.8928 9.74795 14.4675C9.99728 14.0422 10.122 13.5802 10.122 13.0815C10.122 12.5828 9.99728 12.1208 9.74795 11.6955C9.49862 11.2702 9.16128 10.9292 8.73595 10.6725C8.31062 10.4158 7.84862 10.2875 7.34995 10.2875ZM7.34995 14.4675C6.96862 14.4675 6.64228 14.3318 6.37095 14.0605C6.09962 13.7892 5.96395 13.4628 5.96395 13.0815C5.96395 12.7002 6.09962 12.3738 6.37095 12.1025C6.64228 11.8312 6.96862 11.6955 7.34995 11.6955C7.73128 11.6955 8.05762 11.8312 8.32895 12.1025C8.60028 12.3738 8.73595 12.6965 8.73595 13.0705C8.73595 13.4445 8.60028 13.7708 8.32895 14.0495C8.05762 14.3282 7.73128 14.4675 7.34995 14.4675ZM18.68 2.36752C18.6213 2.25018 18.537 2.15485 18.427 2.08152C18.317 2.00818 18.196 1.97152 18.064 1.97152H14.412V3.35752H17.646L19.516 7.11952L20.77 6.50352L18.68 2.36752ZM5.25995 12.3995H2.86195C2.67128 12.3995 2.50628 12.4655 2.36695 12.5975C2.22762 12.7295 2.15795 12.8945 2.15795 13.0925C2.15795 13.2905 2.22762 13.4555 2.36695 13.5875C2.50628 13.7195 2.67128 13.7855 2.86195 13.7855H5.25995C5.45062 13.7855 5.61562 13.7195 5.75495 13.5875C5.89428 13.4555 5.96395 13.2942 5.96395 13.1035C5.96395 12.9128 5.89428 12.7478 5.75495 12.6085C5.61562 12.4692 5.45062 12.3995 5.25995 12.3995ZM22.046 8.15352L20.682 6.41552C20.5353 6.22485 20.3593 6.12952 20.154 6.12952H15.116V1.28952C15.116 1.09885 15.0463 0.933849 14.907 0.794516C14.7676 0.655183 14.6026 0.585516 14.412 0.585516H2.86195C2.67128 0.585516 2.50628 0.651516 2.36695 0.783516C2.22762 0.915516 2.15795 1.08052 2.15795 1.27852C2.15795 1.47652 2.22395 1.64152 2.35595 1.77352C2.48795 1.90552 2.65662 1.97152 2.86195 1.97152H13.73V6.83352C13.73 7.02418 13.796 7.18552 13.928 7.31752C14.06 7.44952 14.2213 7.51552 14.412 7.51552H19.802L20.814 8.83552V12.3995H18.9C18.7093 12.3995 18.5443 12.4655 18.405 12.5975C18.2656 12.7295 18.196 12.8945 18.196 13.0925C18.196 13.2905 18.2656 13.4555 18.405 13.5875C18.5443 13.7195 18.7093 13.7855 18.9 13.7855H21.518C21.7086 13.7855 21.87 13.7195 22.002 13.5875C22.134 13.4555 22.2 13.2942 22.2 13.1035V8.59352C22.2 8.41752 22.1486 8.27085 22.046 8.15352ZM5.21595 8.87952H2.02595C1.83528 8.87952 1.67395 8.94918 1.54195 9.08852C1.40995 9.22785 1.34395 9.39285 1.34395 9.58352C1.34395 9.77418 1.40995 9.93552 1.54195 10.0675C1.67395 10.1995 1.83528 10.2655 2.02595 10.2655H5.21595C5.40662 10.2655 5.57162 10.1995 5.71095 10.0675C5.85028 9.93552 5.91995 9.77418 5.91995 9.58352C5.91995 9.39285 5.85028 9.22785 5.71095 9.08852C5.57162 8.94918 5.40662 8.87952 5.21595 8.87952ZM6.79995 6.15152H0.903951C0.713284 6.15152 0.548285 6.22118 0.408951 6.36052C0.269618 6.49985 0.199951 6.66485 0.199951 6.85552C0.199951 7.04618 0.269618 7.20752 0.408951 7.33952C0.548285 7.47152 0.713284 7.53752 0.903951 7.53752H6.79995C6.99062 7.53752 7.15562 7.47152 7.29495 7.33952C7.43428 7.20752 7.50395 7.04618 7.50395 6.85552C7.50395 6.66485 7.43428 6.49985 7.29495 6.36052C7.15562 6.22118 6.99062 6.15152 6.79995 6.15152ZM7.94395 3.44552H2.02595C1.83528 3.44552 1.67395 3.51152 1.54195 3.64352C1.40995 3.77552 1.34395 3.93685 1.34395 4.12752C1.34395 4.31818 1.40995 4.48318 1.54195 4.62252C1.67395 4.76185 1.83528 4.83152 2.02595 4.83152H7.94395C8.13462 4.83152 8.29595 4.76185 8.42795 4.62252C8.55995 4.48318 8.62595 4.31818 8.62595 4.12752C8.62595 3.93685 8.55995 3.77552 8.42795 3.64352C8.29595 3.51152 8.13462 3.44552 7.94395 3.44552Z" fill="#202435"/>
</svg>
