<svg width="22" height="23" viewBox="0 0 22 23" fill="none" xmlns="http://www.w3.org/2000/svg">
<path d="M20.1879 11.5057C20.0853 11.3151 20.0853 11.1244 20.1879 10.9337L21.0019 9.26173C21.2366 8.79239 21.2733 8.31206 21.1119 7.82073C20.9506 7.32939 20.6353 6.95906 20.1659 6.70973L18.5159 5.85173C18.3253 5.74906 18.2153 5.59506 18.1859 5.38973L17.8559 3.54173C17.7679 3.02839 17.5149 2.62139 17.0969 2.32073C16.6789 2.02006 16.2133 1.90639 15.6999 1.97973L13.8519 2.24373C13.6466 2.27306 13.4706 2.21439 13.3239 2.06773L11.9819 0.769726C11.6153 0.403061 11.1716 0.219727 10.6509 0.219727C10.1303 0.219727 9.67926 0.403061 9.29793 0.769726L7.95593 2.06773C7.80926 2.21439 7.63326 2.27306 7.42793 2.24373L5.57993 1.97973C5.0666 1.90639 4.60093 2.02006 4.18293 2.32073C3.76493 2.62139 3.51193 3.02839 3.42393 3.54173L3.09393 5.38973C3.0646 5.59506 2.9546 5.74906 2.76393 5.85173L1.11393 6.70973C0.644595 6.95906 0.329262 7.32939 0.167929 7.82073C0.00659519 8.31206 0.0432619 8.79239 0.277929 9.26173L1.11393 10.9337C1.2166 11.1244 1.2166 11.3151 1.11393 11.5057L0.277929 13.1777C0.0432619 13.6471 0.00659519 14.1237 0.167929 14.6077C0.329262 15.0917 0.644595 15.4584 1.11393 15.7077L2.76393 16.5877C2.9546 16.6904 3.0646 16.8444 3.09393 17.0497L3.42393 18.8977C3.49726 19.3524 3.70993 19.7301 4.06193 20.0307C4.41393 20.3314 4.8246 20.4817 5.29393 20.4817C5.41126 20.4817 5.5066 20.4744 5.57993 20.4597L7.42793 20.1957C7.63326 20.1664 7.80926 20.2251 7.95593 20.3717L9.29793 21.6697C9.6646 22.0364 10.1119 22.2197 10.6399 22.2197C11.1679 22.2197 11.6153 22.0364 11.9819 21.6697L13.3239 20.3717C13.4706 20.2251 13.6466 20.1664 13.8519 20.1957L15.6999 20.4597C16.2133 20.5331 16.6789 20.4194 17.0969 20.1187C17.5149 19.8181 17.7679 19.4111 17.8559 18.8977L18.1859 17.0497C18.2153 16.8444 18.3253 16.6904 18.5159 16.5877L20.1659 15.7077C20.6353 15.4584 20.9506 15.0917 21.1119 14.6077C21.2733 14.1237 21.2366 13.6471 21.0019 13.1777L20.1879 11.5057ZM19.5719 14.6077L17.9219 15.4657C17.6579 15.6124 17.4416 15.8031 17.2729 16.0377C17.1043 16.2724 16.9906 16.5364 16.9319 16.8297L16.6239 18.6777C16.5946 18.8537 16.5066 18.9931 16.3599 19.0957C16.2133 19.1984 16.0519 19.2351 15.8759 19.2057L14.0279 18.9417C13.7493 18.8977 13.4669 18.9234 13.1809 19.0187C12.8949 19.1141 12.6493 19.2644 12.4439 19.4697L11.1019 20.7677C10.9846 20.8851 10.8343 20.9437 10.6509 20.9437C10.4676 20.9437 10.3173 20.8851 10.1999 20.7677L8.85793 19.4697C8.46193 19.1031 8.0146 18.9197 7.51593 18.9197L7.25193 18.9417L5.40393 19.2057C5.22793 19.2351 5.0666 19.1984 4.91993 19.0957C4.77326 18.9931 4.68526 18.8537 4.65593 18.6777L4.34793 16.8297C4.28926 16.5364 4.1756 16.2724 4.00693 16.0377C3.83826 15.8031 3.62193 15.6124 3.35793 15.4657L1.70793 14.6077C1.5466 14.5344 1.44026 14.4134 1.38893 14.2447C1.3376 14.0761 1.3486 13.9111 1.42193 13.7497L2.23593 12.0557C2.36793 11.7917 2.43393 11.5131 2.43393 11.2197C2.43393 10.9264 2.36793 10.6477 2.23593 10.3837L1.42193 8.68973C1.3486 8.52839 1.3376 8.36339 1.38893 8.19473C1.44026 8.02606 1.5466 7.90506 1.70793 7.83173L3.35793 6.97373C3.62193 6.82706 3.83826 6.63639 4.00693 6.40173C4.1756 6.16706 4.28926 5.90306 4.34793 5.60973L4.65593 3.76173C4.68526 3.58573 4.77326 3.44639 4.91993 3.34373C5.0666 3.24106 5.22793 3.20439 5.40393 3.23373L7.25193 3.49773C7.5306 3.54173 7.81293 3.51606 8.09893 3.42073C8.38493 3.32539 8.63793 3.17506 8.85793 2.96973L10.1999 1.67173C10.3173 1.55439 10.4676 1.49573 10.6509 1.49573C10.8343 1.49573 10.9846 1.55439 11.1019 1.67173L12.4439 2.96973C12.6493 3.17506 12.8949 3.32539 13.1809 3.42073C13.4669 3.51606 13.7493 3.54173 14.0279 3.49773L15.8759 3.23373C16.0519 3.20439 16.2133 3.24106 16.3599 3.34373C16.5066 3.44639 16.5946 3.58573 16.6239 3.76173L16.9319 5.60973C16.9906 5.90306 17.1043 6.16706 17.2729 6.40173C17.4416 6.63639 17.6579 6.82706 17.9219 6.97373L19.5719 7.83173C19.7333 7.90506 19.8396 8.02606 19.8909 8.19473C19.9423 8.36339 19.9313 8.52839 19.8579 8.68973L19.0439 10.3837C18.9119 10.6477 18.8459 10.9264 18.8459 11.2197C18.8459 11.5131 18.9119 11.7917 19.0439 12.0557L19.8579 13.7497C19.9313 13.9111 19.9423 14.0761 19.8909 14.2447C19.8396 14.4134 19.7333 14.5344 19.5719 14.6077ZM15.2819 6.57773C15.1646 6.46039 15.0143 6.40173 14.8309 6.40173C14.6476 6.40173 14.4973 6.46039 14.3799 6.57773L5.99793 14.9597C5.8806 15.0771 5.82193 15.2237 5.82193 15.3997C5.82193 15.5757 5.88426 15.7261 6.00893 15.8507C6.1336 15.9754 6.2766 16.0377 6.43793 16.0377C6.59926 16.0377 6.75326 15.9791 6.89993 15.8617L15.2819 7.47973C15.3993 7.36239 15.4579 7.21573 15.4579 7.03973C15.4579 6.86373 15.3993 6.70973 15.2819 6.57773ZM8.10993 5.49973C7.6846 5.49973 7.29226 5.60606 6.93293 5.81873C6.5736 6.03139 6.29126 6.31373 6.08593 6.66573C5.8806 7.01773 5.77793 7.40639 5.77793 7.83173C5.77793 8.25706 5.8806 8.64573 6.08593 8.99773C6.29126 9.34973 6.5736 9.63206 6.93293 9.84473C7.29226 10.0574 7.6846 10.1637 8.10993 10.1637C8.53526 10.1637 8.92393 10.0574 9.27593 9.84473C9.62793 9.63206 9.9066 9.34973 10.1119 8.99773C10.3173 8.64573 10.4199 8.25706 10.4199 7.83173C10.4199 7.40639 10.3173 7.01773 10.1119 6.66573C9.9066 6.31373 9.62426 6.03139 9.26493 5.81873C8.9056 5.60606 8.5206 5.49973 8.10993 5.49973ZM8.10993 8.88773C7.8166 8.88773 7.56726 8.78506 7.36193 8.57973C7.1566 8.37439 7.05393 8.12506 7.05393 7.83173C7.05393 7.53839 7.1566 7.28906 7.36193 7.08373C7.56726 6.87839 7.8166 6.77573 8.10993 6.77573C8.40326 6.77573 8.6526 6.87839 8.85793 7.08373C9.06326 7.28906 9.16593 7.53839 9.16593 7.83173C9.16593 8.12506 9.06326 8.37439 8.85793 8.57973C8.6526 8.78506 8.40326 8.88773 8.10993 8.88773ZM13.1699 12.2757C12.7446 12.2757 12.3559 12.3784 12.0039 12.5837C11.6519 12.7891 11.3733 13.0714 11.1679 13.4307C10.9626 13.7901 10.8599 14.1824 10.8599 14.6077C10.8599 15.2531 11.0836 15.7994 11.5309 16.2467C11.9783 16.6941 12.5246 16.9177 13.1699 16.9177C13.5953 16.9177 13.9876 16.8151 14.3469 16.6097C14.7063 16.4044 14.9886 16.1257 15.1939 15.7737C15.3993 15.4217 15.5019 15.0331 15.5019 14.6077C15.5019 14.1824 15.3993 13.7937 15.1939 13.4417C14.9886 13.0897 14.7063 12.8074 14.3469 12.5947C13.9876 12.3821 13.5953 12.2757 13.1699 12.2757ZM13.1699 15.6637C12.8913 15.6637 12.6456 15.5574 12.4329 15.3447C12.2203 15.1321 12.1139 14.8827 12.1139 14.5967C12.1139 14.3107 12.2203 14.0651 12.4329 13.8597C12.6456 13.6544 12.8949 13.5517 13.1809 13.5517C13.4669 13.5517 13.7126 13.6544 13.9179 13.8597C14.1233 14.0651 14.2259 14.3144 14.2259 14.6077C14.2259 14.9011 14.1233 15.1504 13.9179 15.3557C13.7126 15.5611 13.4633 15.6637 13.1699 15.6637Z" fill="#202435"/>
</svg>
