<svg width="7" height="17" viewBox="0 0 7 17" fill="none" xmlns="http://www.w3.org/2000/svg">
<g clip-path="url(#clip0_1_1009)">
<path d="M6.65971 7.73454L4.17043 10.116C4.04277 10.2435 3.90093 10.3073 3.74491 10.3073C3.58889 10.3073 3.44705 10.2435 3.31939 10.116L0.830119 7.73454C0.716648 7.62114 0.659912 7.47584 0.659912 7.29865C0.659912 7.12146 0.716648 6.97617 0.830119 6.86277C1.09961 6.59344 1.3762 6.59344 1.65988 6.86277L3.74491 8.86146L5.82995 6.86277C6.11362 6.59344 6.39021 6.59344 6.65971 6.86277C6.77318 6.97617 6.82991 7.12146 6.82991 7.29865C6.82991 7.47584 6.77318 7.62114 6.65971 7.73454Z" fill="#3E445A"/>
</g>
<defs>
<clipPath id="clip0_1_1009">
<rect width="6.17" height="16.18" fill="white" transform="matrix(1 0 0 -1 0.659912 16.59)"/>
</clipPath>
</defs>
</svg>
