<svg width="18" height="15" viewBox="0 0 18 15" fill="none" xmlns="http://www.w3.org/2000/svg">
<path d="M16.7219 12.8219V5.1179C16.5059 5.35789 16.2719 5.57389 16.0199 5.76589C14.2319 7.1459 12.8039 8.27989 11.7359 9.16789C11.3999 9.45589 11.1239 9.67789 10.9079 9.83389C10.6919 9.98989 10.4039 10.1579 10.0439 10.3379C9.68391 10.5179 9.34191 10.5959 9.01791 10.5719H8.98191C8.66991 10.5719 8.32791 10.4939 7.95591 10.3379C7.58391 10.1819 7.29591 10.0139 7.09191 9.83389C6.88791 9.65389 6.61191 9.43189 6.26391 9.16789C5.20791 8.27989 3.77991 7.1459 1.97991 5.76589C1.72791 5.57389 1.49391 5.35789 1.27791 5.1179V12.8219C1.27791 12.9059 1.31391 12.9839 1.38591 13.0559C1.45791 13.1279 1.52991 13.1579 1.60191 13.1459H16.3979C16.4819 13.1459 16.5539 13.1159 16.6139 13.0559C16.6739 12.9959 16.7099 12.9179 16.7219 12.8219ZM16.7219 2.2739V2.0219L16.6859 1.7699L16.6319 1.6799C16.5959 1.61989 16.5659 1.59589 16.5419 1.60789C16.5179 1.61989 16.4699 1.60789 16.3979 1.57189H1.60191C1.51791 1.57189 1.44591 1.60789 1.38591 1.6799C1.32591 1.75189 1.28991 1.8239 1.27791 1.8959C1.27791 3.0239 1.77591 3.97789 2.77191 4.75789C4.05591 5.76589 5.39391 6.82189 6.78591 7.92589C6.83391 7.96189 6.95391 8.06389 7.14591 8.23189C7.33791 8.39989 7.48791 8.52589 7.59591 8.60989C7.70391 8.69389 7.85391 8.79589 8.04591 8.91589C8.23791 9.03589 8.40591 9.13189 8.54991 9.20389C8.69391 9.27589 8.83791 9.30589 8.98191 9.29389H9.01791C9.14991 9.29389 9.29391 9.26389 9.44991 9.20389C9.60591 9.14389 9.77391 9.04789 9.95391 8.91589C10.1339 8.78389 10.2839 8.68189 10.4039 8.60989C10.5239 8.53789 10.6739 8.41189 10.8539 8.23189C11.0339 8.05189 11.1539 7.94989 11.2139 7.92589C12.6059 6.82189 13.9499 5.76589 15.2459 4.75789C15.6059 4.4699 15.9419 4.0799 16.2539 3.5879C16.5659 3.09589 16.7219 2.6579 16.7219 2.2739ZM17.9999 1.8959V12.8219C17.9999 13.2659 17.8439 13.6439 17.5319 13.9559C17.2199 14.2679 16.8419 14.4299 16.3979 14.4419H1.60191C1.16991 14.4419 0.79191 14.2799 0.46791 13.9559C0.14391 13.6319 -0.0120896 13.2539 -8.95647e-05 12.8219V1.8959C-8.95647e-05 1.45189 0.15591 1.0739 0.46791 0.761895C0.77991 0.449895 1.15791 0.293895 1.60191 0.293895H16.3979C16.8419 0.293895 17.2199 0.449895 17.5319 0.761895C17.8439 1.0739 17.9999 1.45189 17.9999 1.8959Z" fill="#C2C2D3"/>
</svg>
