<svg width="34" height="35" viewBox="0 0 34 35" fill="none" xmlns="http://www.w3.org/2000/svg">
<rect x="0.5" y="0.969727" width="33" height="33" rx="16.5" stroke="#E4E5EE"/>
<g clip-path="url(#clip0_1_964)">
<path d="M20.7425 9.32479V11.5298H19.4375C18.9575 11.5298 18.6325 11.6298 18.4625 11.8298C18.2925 12.0298 18.2075 12.3298 18.2075 12.7298V14.3198H20.6675L20.3375 16.7948H18.2075V23.1548H15.6425V16.7948H13.5125V14.3198H15.6425V12.4898C15.6425 11.4498 15.9325 10.6448 16.5125 10.0748C17.0925 9.50479 17.8675 9.21979 18.8375 9.21979C19.6575 9.21979 20.2925 9.25479 20.7425 9.32479Z" fill="#35AFA0"/>
</g>
<defs>
<clipPath id="clip0_1_964">
<rect width="15" height="15" fill="white" transform="matrix(1 0 0 -1 9.5 24.2197)"/>
</clipPath>
</defs>
</svg>
