<svg width="21" height="23" viewBox="0 0 21 23" fill="none" xmlns="http://www.w3.org/2000/svg">
<path d="M13.9101 9.70173V7.58973L12.2161 3.65173V0.219727H2.40407V3.65173L0.62207 7.58973V22.2197H20.3781V9.70173H13.9101ZM17.1661 18.2817C16.7847 17.9444 16.3521 17.7757 15.8681 17.7757C15.3841 17.7757 14.9514 17.9444 14.5701 18.2817C14.2034 17.9444 13.7781 17.7757 13.2941 17.7757C13.1034 17.7757 12.8834 17.8124 12.6341 17.8857V13.9917H19.1021V17.8857C18.8527 17.8124 18.6327 17.7757 18.4421 17.7757C17.9581 17.7757 17.5327 17.9444 17.1661 18.2817ZM19.1021 12.6937H12.6341V10.9997H19.1021V12.6937ZM11.3581 9.70173V18.3697H1.89807V8.38173H12.6121V9.70173H11.3581ZM12.2821 7.08373H2.27207L3.46007 4.42173H11.1381L12.2821 7.08373ZM3.70207 1.51773H10.9181V3.14573H3.70207V1.51773ZM1.89807 20.9217V19.6677H11.3581V20.9217H1.89807ZM12.6341 20.9217V19.7117C12.6341 19.5357 12.7001 19.3854 12.8321 19.2607C12.9641 19.1361 13.1181 19.0737 13.2941 19.0737C13.4701 19.0737 13.6204 19.1361 13.7451 19.2607C13.8697 19.3854 13.9321 19.5357 13.9321 19.7117V20.9217H12.6341ZM15.2301 20.9217V19.7117C15.2301 19.5357 15.2924 19.3854 15.4171 19.2607C15.5417 19.1361 15.6921 19.0737 15.8681 19.0737C16.0441 19.0737 16.1944 19.1361 16.3191 19.2607C16.4437 19.3854 16.5061 19.5357 16.5061 19.7117V20.9217H15.2301ZM19.1021 20.9217H17.8041V19.7117C17.8041 19.5357 17.8664 19.3854 17.9911 19.2607C18.1157 19.1361 18.2661 19.0737 18.4421 19.0737C18.6181 19.0737 18.7721 19.1361 18.9041 19.2607C19.0361 19.3854 19.1021 19.5357 19.1021 19.7117V20.9217Z" fill="currentColor"/>
</svg>
