<svg width="15" height="16" viewBox="0 0 15 16" fill="none" xmlns="http://www.w3.org/2000/svg">
<path d="M14.835 7.83001L11.76 4.78501C11.65 4.675 11.5125 4.62001 11.3475 4.62001C11.1825 4.62001 11.045 4.67751 10.935 4.79251C10.825 4.90751 10.77 5.045 10.77 5.20501C10.77 5.36501 10.825 5.505 10.935 5.62501L12.99 7.66501H0.585C0.425 7.66501 0.2875 7.72251 0.1725 7.8375C0.0575 7.9525 0 8.09 0 8.25001C0 8.41 0.0575 8.5475 0.1725 8.6625C0.2875 8.7775 0.425 8.83501 0.585 8.83501H12.99L10.935 10.875C10.825 10.995 10.77 11.135 10.77 11.295C10.77 11.455 10.825 11.5925 10.935 11.7075C11.045 11.8225 11.1825 11.88 11.3475 11.88C11.5125 11.88 11.65 11.825 11.76 11.715L14.835 8.67C14.945 8.55 15 8.41 15 8.25001C15 8.09 14.945 7.95001 14.835 7.83001Z" fill="#9B9BB4"/>
</svg>
