<svg width="34" height="35" viewBox="0 0 34 35" fill="none" xmlns="http://www.w3.org/2000/svg">
<rect x="0.5" y="0.969727" width="33" height="33" rx="16.5" stroke="#E4E5EE"/>
<path d="M19.1375 16.7198C19.1375 16.1298 18.9325 15.6248 18.5225 15.2048C18.1125 14.7848 17.6075 14.5748 17.0075 14.5748C16.4075 14.5748 15.9025 14.7848 15.4925 15.2048C15.0825 15.6248 14.8725 16.1298 14.8625 16.7198C14.8525 17.3098 15.0625 17.8148 15.4925 18.2348C15.9225 18.6548 16.4275 18.8648 17.0075 18.8648C17.5875 18.8648 18.0925 18.6548 18.5225 18.2348C18.9525 17.8148 19.1575 17.3098 19.1375 16.7198ZM20.2925 16.7198C20.2925 17.6298 19.9725 18.4098 19.3325 19.0598C18.6925 19.7098 17.9175 20.0298 17.0075 20.0198C16.0975 20.0098 15.3175 19.6898 14.6675 19.0598C14.0175 18.4298 13.6975 17.6498 13.7075 16.7198C13.7175 15.7898 14.0375 15.0098 14.6675 14.3798C15.2975 13.7498 16.0775 13.4298 17.0075 13.4198C17.9375 13.4098 18.7125 13.7298 19.3325 14.3798C19.9525 15.0298 20.2725 15.8098 20.2925 16.7198ZM21.2075 13.2848C21.2075 13.4948 21.1325 13.6748 20.9825 13.8248C20.8325 13.9748 20.6475 14.0498 20.4275 14.0498C20.2075 14.0498 20.0275 13.9748 19.8875 13.8248C19.7475 13.6748 19.6725 13.4948 19.6625 13.2848C19.6525 13.0748 19.7275 12.8948 19.8875 12.7448C20.0475 12.5948 20.2275 12.5198 20.4275 12.5198C20.6275 12.5198 20.8125 12.5948 20.9825 12.7448C21.1525 12.8948 21.2275 13.0748 21.2075 13.2848ZM17.0075 11.4398C16.9675 11.4398 16.7525 11.4398 16.3625 11.4398H15.4775C15.2775 11.4398 15.0075 11.4498 14.6675 11.4698C14.3275 11.4898 14.0425 11.5148 13.8125 11.5448C13.5825 11.5748 13.3825 11.6298 13.2125 11.7098C12.9325 11.8198 12.6875 11.9798 12.4775 12.1898C12.2675 12.3998 12.1025 12.6448 11.9825 12.9248C11.9225 13.0848 11.8725 13.2848 11.8325 13.5248C11.7925 13.7648 11.7625 14.0548 11.7425 14.3948C11.7225 14.7348 11.7175 14.9998 11.7275 15.1898C11.7375 15.3798 11.7375 15.6748 11.7275 16.0748C11.7175 16.4748 11.7175 16.6898 11.7275 16.7198C11.7375 16.7498 11.7375 16.9648 11.7275 17.3648C11.7175 17.7648 11.7175 18.0598 11.7275 18.2498C11.7375 18.4398 11.7425 18.7048 11.7425 19.0448C11.7425 19.3848 11.7725 19.6748 11.8325 19.9148L11.9825 20.5148C12.1025 20.7948 12.2675 21.0398 12.4775 21.2498C12.6875 21.4598 12.9325 21.6198 13.2125 21.7298C13.3725 21.7898 13.5725 21.8448 13.8125 21.8948C14.0525 21.9448 14.3375 21.9698 14.6675 21.9698C14.9975 21.9698 15.2675 21.9798 15.4775 21.9998C15.6875 22.0198 15.9825 22.0198 16.3625 21.9998C16.7425 21.9798 16.9575 21.9798 17.0075 21.9998C17.0575 22.0198 17.2675 22.0198 17.6375 21.9998C18.0075 21.9798 18.3025 21.9798 18.5225 21.9998C18.7425 22.0198 19.0125 22.0098 19.3325 21.9698C19.6525 21.9298 19.9425 21.9048 20.2025 21.8948C20.4625 21.8848 20.6575 21.8298 20.7875 21.7298C21.0675 21.6198 21.3175 21.4598 21.5375 21.2498C21.7575 21.0398 21.9175 20.7948 22.0175 20.5148C22.0775 20.3548 22.1275 20.1548 22.1675 19.9148C22.2075 19.6748 22.2375 19.3848 22.2575 19.0448C22.2775 18.7048 22.2825 18.4398 22.2725 18.2498C22.2625 18.0598 22.2625 17.7648 22.2725 17.3648C22.2825 16.9648 22.2825 16.7498 22.2725 16.7198C22.2625 16.6898 22.2625 16.4748 22.2725 16.0748C22.2825 15.6748 22.2825 15.3798 22.2725 15.1898C22.2625 14.9998 22.2575 14.7348 22.2575 14.3948C22.2575 14.0548 22.2275 13.7648 22.1675 13.5248L22.0175 12.9248C21.9075 12.6448 21.7475 12.3998 21.5375 12.1898C21.3275 11.9798 21.0775 11.8198 20.7875 11.7098C20.6275 11.6498 20.4325 11.5948 20.2025 11.5448C19.9725 11.4948 19.6825 11.4698 19.3325 11.4698C18.9825 11.4698 18.7125 11.4598 18.5225 11.4398C18.3325 11.4198 18.0375 11.4198 17.6375 11.4398C17.2375 11.4598 17.0275 11.4598 17.0075 11.4398ZM23.4275 16.7198C23.4275 17.9998 23.4125 18.8848 23.3825 19.3748C23.3325 20.5348 22.9875 21.4348 22.3475 22.0748C21.7075 22.7148 20.8125 23.0598 19.6625 23.1098C19.1625 23.1398 18.2775 23.1548 17.0075 23.1548C15.7375 23.1548 14.8525 23.1398 14.3525 23.1098C13.1925 23.0498 12.2925 22.7048 11.6525 22.0748C11.0125 21.4448 10.6675 20.5448 10.6175 19.3748C10.5875 18.8848 10.5725 17.9998 10.5725 16.7198C10.5725 15.4398 10.5875 14.5548 10.6175 14.0648C10.6675 12.9048 11.0125 12.0048 11.6525 11.3648C12.2925 10.7248 13.1925 10.3798 14.3525 10.3298C14.8425 10.2998 15.7275 10.2848 17.0075 10.2848C18.2875 10.2848 19.1725 10.2998 19.6625 10.3298C20.8225 10.3898 21.7175 10.7348 22.3475 11.3648C22.9775 11.9948 23.3225 12.8948 23.3825 14.0648C23.4125 14.5548 23.4275 15.4398 23.4275 16.7198Z" fill="#35AFA0"/>
</svg>
