<svg width="36" height="37" viewBox="0 0 36 37" fill="none" xmlns="http://www.w3.org/2000/svg">
<g clip-path="url(#clip0_1_4652)">
<path d="M4.41895 14.072C4.41895 10.328 5.73895 7.124 8.37895 4.46C11.0189 1.796 14.2229 0.476002 17.9909 0.5C21.7589 0.524002 24.9629 1.844 27.6029 4.46C30.2429 7.076 31.5629 10.28 31.5629 14.072C31.5629 17.024 30.9269 19.34 29.6549 21.02L17.9909 36.5L6.32695 21.02C5.05495 19.34 4.41895 17.024 4.41895 14.072ZM12.3029 14.072C12.3029 15.656 12.8549 17 13.9589 18.104C15.0629 19.208 16.4069 19.76 17.9909 19.76C19.5749 19.76 20.9189 19.208 22.0229 18.104C23.1269 17 23.6789 15.656 23.6789 14.072C23.6789 12.488 23.1269 11.144 22.0229 10.04C20.9189 8.936 19.5749 8.384 17.9909 8.384C16.4069 8.384 15.0629 8.936 13.9589 10.04C12.8549 11.144 12.3029 12.488 12.3029 14.072Z" fill="#35AFA0"/>
</g>
<defs>
<clipPath id="clip0_1_4652">
<rect width="36" height="36" fill="white" transform="matrix(1 0 0 -1 -0.00878906 36.5)"/>
</clipPath>
</defs>
</svg>
