<svg width="20" height="22" viewBox="0 0 20 22" fill="none" xmlns="http://www.w3.org/2000/svg">
<path d="M9.33994 21.956C8.26927 21.956 7.24994 21.7543 6.28194 21.351C5.31394 20.9477 4.44861 20.3647 3.68594 19.602C2.83527 18.7513 2.19727 17.8273 1.77194 16.83C1.24394 15.6567 0.97994 14.476 0.97994 13.288C0.950607 11.8947 1.25861 10.5087 1.90394 9.12999C2.54927 7.75133 3.49527 6.43866 4.74194 5.19199C5.37261 4.54666 6.17927 3.86466 7.16194 3.14599C8.42327 2.23666 9.66261 1.51066 10.8799 0.967995C12.5666 0.234661 14.0919 -0.0806732 15.4559 0.0219936C16.8199 0.12466 17.9786 0.645327 18.9319 1.58399C19.1666 1.81866 19.3609 2.11199 19.5149 2.46399C19.6689 2.81599 19.7753 3.18999 19.8339 3.58599C19.9659 4.59799 19.7606 5.52933 19.2179 6.37999C18.4259 7.65599 17.8759 8.82566 17.5679 9.88899C17.2599 10.9523 17.1646 11.9827 17.2819 12.98C17.4286 14.212 17.3039 15.4073 16.9079 16.566C16.5119 17.7247 15.8739 18.744 14.9939 19.624C14.2313 20.372 13.3659 20.9477 12.3979 21.351C11.4299 21.7543 10.4106 21.956 9.33994 21.956ZM14.9499 1.27599C13.8939 1.27599 12.7133 1.56933 11.4079 2.15599C10.2786 2.65466 9.11994 3.33666 7.93194 4.20199C7.03727 4.84733 6.27461 5.47799 5.64394 6.09399C4.14794 7.58999 3.15061 9.16666 2.65194 10.824C2.18261 12.3053 2.14594 13.7647 2.54194 15.202C2.90861 16.522 3.59061 17.688 4.58794 18.7C5.45327 19.5653 6.46527 20.1447 7.62394 20.438C8.76794 20.746 9.90461 20.746 11.0339 20.438C12.2073 20.1447 13.2266 19.5653 14.0919 18.7C14.8253 17.9667 15.3569 17.1123 15.6869 16.137C16.0169 15.1617 16.1233 14.1607 16.0059 13.134C15.8593 11.9753 15.9583 10.802 16.3029 9.61399C16.6476 8.42599 17.2526 7.12799 18.1179 5.71999C18.3819 5.27999 18.5359 4.81799 18.5799 4.33399C18.6093 3.93799 18.5579 3.55666 18.4259 3.18999C18.3086 2.89666 18.1693 2.66933 18.0079 2.50799C17.1866 1.68666 16.1673 1.27599 14.9499 1.27599ZM9.33994 19.382C8.60661 19.382 7.90994 19.2427 7.24994 18.964C6.58994 18.6853 6.01061 18.2893 5.51194 17.776C4.89594 17.1747 4.41927 16.478 4.08194 15.686C3.74461 14.894 3.56861 14.0873 3.55394 13.266C3.53927 12.3127 3.74461 11.3373 4.16994 10.34C4.68327 9.19599 5.47527 8.08866 6.54594 7.01799C7.20594 6.35799 8.00527 5.69799 8.94394 5.03799C9.97061 4.31933 10.9826 3.74733 11.9799 3.32199C13.1093 2.82333 14.0993 2.57399 14.9499 2.57399C15.5366 2.57399 16.0426 2.69133 16.4679 2.92599C16.8346 3.13133 17.0766 3.43566 17.1939 3.83899C17.3113 4.24233 17.2599 4.63466 17.0399 5.01599L17.0179 5.03799C16.0793 6.54866 15.4229 7.97499 15.0489 9.31699C14.6749 10.659 14.5686 11.9827 14.7299 13.288C14.8326 14.124 14.7483 14.9343 14.4769 15.719C14.2056 16.5037 13.7693 17.1967 13.1679 17.798C12.6546 18.3113 12.0679 18.7037 11.4079 18.975C10.7479 19.2463 10.0586 19.382 9.33994 19.382ZM14.9499 3.87199C14.2459 3.87199 13.3953 4.09933 12.3979 4.55399C11.5179 4.93533 10.6086 5.45599 9.66994 6.11599C8.80461 6.71733 8.07127 7.31866 7.46994 7.91999C6.50194 8.88799 5.79794 9.87066 5.35794 10.868C5.00594 11.66 4.82994 12.452 4.82994 13.244C4.84461 13.904 4.98761 14.5493 5.25894 15.18C5.53027 15.8107 5.91527 16.3753 6.41394 16.874C6.80994 17.27 7.25727 17.5707 7.75594 17.776C8.25461 17.9813 8.78261 18.084 9.33994 18.084C9.89727 18.084 10.4253 17.9813 10.9239 17.776C11.4226 17.5707 11.8699 17.27 12.2659 16.874C12.7206 16.4193 13.0506 15.8913 13.2559 15.29C13.4613 14.6887 13.5273 14.0727 13.4539 13.442C13.2779 12.0047 13.3916 10.5453 13.7949 9.06399C14.1983 7.58266 14.9059 6.01333 15.9179 4.35599C15.9619 4.29733 15.9766 4.24233 15.9619 4.19099C15.9473 4.13966 15.9106 4.09199 15.8519 4.04799C15.6319 3.93066 15.3313 3.87199 14.9499 3.87199ZM9.38394 16.126C8.81194 16.126 8.32427 15.9243 7.92094 15.521C7.51761 15.1177 7.31594 14.63 7.31594 14.058C7.31594 13.486 7.51761 12.9983 7.92094 12.595C8.32427 12.1917 8.81194 11.99 9.38394 11.99C9.95594 11.99 10.4436 12.1917 10.8469 12.595C11.2503 12.9983 11.4519 13.486 11.4519 14.058C11.4519 14.63 11.2503 15.1177 10.8469 15.521C10.4436 15.9243 9.95594 16.126 9.38394 16.126ZM9.38394 13.288C9.17861 13.288 8.99894 13.3613 8.84494 13.508C8.69094 13.6547 8.61394 13.838 8.61394 14.058C8.61394 14.278 8.69094 14.4613 8.84494 14.608C8.99894 14.7547 9.17861 14.828 9.38394 14.828C9.58927 14.828 9.77261 14.751 9.93394 14.597C10.0953 14.443 10.1759 14.2633 10.1759 14.058C10.1759 13.8527 10.0989 13.673 9.94494 13.519C9.79094 13.365 9.60394 13.288 9.38394 13.288Z" fill="#3E445A"/>
</svg>
