<svg width="23" height="22" viewBox="0 0 23 22" fill="none" xmlns="http://www.w3.org/2000/svg">
<g opacity="0.5">
<path d="M10.3399 21.956C9.26927 21.956 8.24994 21.7543 7.28194 21.351C6.31394 20.9477 5.44861 20.3647 4.68594 19.602C3.83527 18.7513 3.19727 17.8273 2.77194 16.83C2.24394 15.6567 1.97994 14.476 1.97994 13.288C1.95061 11.8947 2.25861 10.5087 2.90394 9.12999C3.54927 7.75133 4.49527 6.43866 5.74194 5.19199C6.37261 4.54666 7.17927 3.86466 8.16194 3.14599C9.42327 2.23666 10.6626 1.51066 11.8799 0.967995C13.5666 0.234661 15.0919 -0.0806732 16.4559 0.0219936C17.8199 0.12466 18.9786 0.645327 19.9319 1.58399C20.1666 1.81866 20.3609 2.11199 20.5149 2.46399C20.6689 2.81599 20.7753 3.18999 20.8339 3.58599C20.9659 4.59799 20.7606 5.52933 20.2179 6.37999C19.4259 7.65599 18.8759 8.82566 18.5679 9.88899C18.2599 10.9523 18.1646 11.9827 18.2819 12.98C18.4286 14.212 18.3039 15.4073 17.9079 16.566C17.5119 17.7247 16.8739 18.744 15.9939 19.624C15.2313 20.372 14.3659 20.9477 13.3979 21.351C12.4299 21.7543 11.4106 21.956 10.3399 21.956ZM15.9499 1.27599C14.8939 1.27599 13.7133 1.56933 12.4079 2.15599C11.2786 2.65466 10.1199 3.33666 8.93194 4.20199C8.03727 4.84733 7.27461 5.47799 6.64394 6.09399C5.14794 7.58999 4.15061 9.16666 3.65194 10.824C3.18261 12.3053 3.14594 13.7647 3.54194 15.202C3.90861 16.522 4.59061 17.688 5.58794 18.7C6.45327 19.5653 7.46527 20.1447 8.62394 20.438C9.76794 20.746 10.9046 20.746 12.0339 20.438C13.2073 20.1447 14.2266 19.5653 15.0919 18.7C15.8253 17.9667 16.3569 17.1123 16.6869 16.137C17.0169 15.1617 17.1233 14.1607 17.0059 13.134C16.8593 11.9753 16.9583 10.802 17.3029 9.61399C17.6476 8.42599 18.2526 7.12799 19.1179 5.71999C19.3819 5.27999 19.5359 4.81799 19.5799 4.33399C19.6093 3.93799 19.5579 3.55666 19.4259 3.18999C19.3086 2.89666 19.1693 2.66933 19.0079 2.50799C18.1866 1.68666 17.1673 1.27599 15.9499 1.27599ZM10.3399 19.382C9.60661 19.382 8.90994 19.2427 8.24994 18.964C7.58994 18.6853 7.01061 18.2893 6.51194 17.776C5.89594 17.1747 5.41927 16.478 5.08194 15.686C4.74461 14.894 4.56861 14.0873 4.55394 13.266C4.53927 12.3127 4.74461 11.3373 5.16994 10.34C5.68327 9.19599 6.47527 8.08866 7.54594 7.01799C8.20594 6.35799 9.00527 5.69799 9.94394 5.03799C10.9706 4.31933 11.9826 3.74733 12.9799 3.32199C14.1093 2.82333 15.0993 2.57399 15.9499 2.57399C16.5366 2.57399 17.0426 2.69133 17.4679 2.92599C17.8346 3.13133 18.0766 3.43566 18.1939 3.83899C18.3113 4.24233 18.2599 4.63466 18.0399 5.01599L18.0179 5.03799C17.0793 6.54866 16.4229 7.97499 16.0489 9.31699C15.6749 10.659 15.5686 11.9827 15.7299 13.288C15.8326 14.124 15.7483 14.9343 15.4769 15.719C15.2056 16.5037 14.7693 17.1967 14.1679 17.798C13.6546 18.3113 13.0679 18.7037 12.4079 18.975C11.7479 19.2463 11.0586 19.382 10.3399 19.382ZM15.9499 3.87199C15.2459 3.87199 14.3953 4.09933 13.3979 4.55399C12.5179 4.93533 11.6086 5.45599 10.6699 6.11599C9.80461 6.71733 9.07127 7.31866 8.46994 7.91999C7.50194 8.88799 6.79794 9.87066 6.35794 10.868C6.00594 11.66 5.82994 12.452 5.82994 13.244C5.84461 13.904 5.98761 14.5493 6.25894 15.18C6.53027 15.8107 6.91527 16.3753 7.41394 16.874C7.80994 17.27 8.25727 17.5707 8.75594 17.776C9.25461 17.9813 9.78261 18.084 10.3399 18.084C10.8973 18.084 11.4253 17.9813 11.9239 17.776C12.4226 17.5707 12.8699 17.27 13.2659 16.874C13.7206 16.4193 14.0506 15.8913 14.2559 15.29C14.4613 14.6887 14.5273 14.0727 14.4539 13.442C14.2779 12.0047 14.3916 10.5453 14.7949 9.06399C15.1983 7.58266 15.9059 6.01333 16.9179 4.35599C16.9619 4.29733 16.9766 4.24233 16.9619 4.19099C16.9473 4.13966 16.9106 4.09199 16.8519 4.04799C16.6319 3.93066 16.3313 3.87199 15.9499 3.87199ZM10.3839 16.126C9.81194 16.126 9.32427 15.9243 8.92094 15.521C8.51761 15.1177 8.31594 14.63 8.31594 14.058C8.31594 13.486 8.51761 12.9983 8.92094 12.595C9.32427 12.1917 9.81194 11.99 10.3839 11.99C10.9559 11.99 11.4436 12.1917 11.8469 12.595C12.2503 12.9983 12.4519 13.486 12.4519 14.058C12.4519 14.63 12.2503 15.1177 11.8469 15.521C11.4436 15.9243 10.9559 16.126 10.3839 16.126ZM10.3839 13.288C10.1786 13.288 9.99894 13.3613 9.84494 13.508C9.69094 13.6547 9.61394 13.838 9.61394 14.058C9.61394 14.278 9.69094 14.4613 9.84494 14.608C9.99894 14.7547 10.1786 14.828 10.3839 14.828C10.5893 14.828 10.7726 14.751 10.9339 14.597C11.0953 14.443 11.1759 14.2633 11.1759 14.058C11.1759 13.8527 11.0989 13.673 10.9449 13.519C10.7909 13.365 10.6039 13.288 10.3839 13.288Z" fill="currentColor"/>
</g>
</svg>
