<svg width="13" height="10" viewBox="0 0 13 10" fill="none" xmlns="http://www.w3.org/2000/svg">
<path d="M12.493 4.243H0.507C0.368333 4.243 0.249167 4.29284 0.1495 4.3925C0.0498333 4.49217 0 4.61134 0 4.75C0 4.88867 0.0498333 5.00784 0.1495 5.1075C0.249167 5.20717 0.368333 5.257 0.507 5.257H12.493C12.6403 5.257 12.7617 5.20717 12.857 5.1075C12.9523 5.00784 13 4.8865 13 4.7435C13 4.6005 12.9523 4.48134 12.857 4.386C12.7617 4.29067 12.6403 4.243 12.493 4.243ZM12.493 0.174004H0.507C0.368333 0.174004 0.249167 0.223837 0.1495 0.323503C0.0498333 0.42317 0 0.542337 0 0.681004C0 0.819671 0.0498333 0.941004 0.1495 1.045C0.249167 1.149 0.368333 1.201 0.507 1.201H12.493C12.6317 1.201 12.7508 1.15117 12.8505 1.0515C12.9502 0.951838 13 0.828337 13 0.681004C13 0.53367 12.9523 0.412337 12.857 0.317004C12.7617 0.22167 12.6403 0.174004 12.493 0.174004ZM12.493 8.299H0.507C0.368333 8.299 0.249167 8.34884 0.1495 8.4485C0.0498333 8.54817 0 8.66734 0 8.806C0 8.94467 0.0498333 9.066 0.1495 9.17C0.249167 9.274 0.368333 9.326 0.507 9.326H12.493C12.6317 9.326 12.7508 9.27617 12.8505 9.1765C12.9502 9.07684 13 8.9555 13 8.8125C13 8.6695 12.9502 8.54817 12.8505 8.4485C12.7508 8.34884 12.6317 8.299 12.493 8.299Z" fill="white"/>
</svg>
