<svg width="23" height="23" viewBox="0 0 23 23" fill="none" xmlns="http://www.w3.org/2000/svg">
<path d="M11.3 0.219727C9.30538 0.219727 7.45738 0.718393 5.75605 1.71573C4.09872 2.69839 2.77872 4.01839 1.79605 5.67573C0.798716 7.37706 0.300049 9.22506 0.300049 11.2197C0.300049 13.2144 0.798716 15.0624 1.79605 16.7637C2.77872 18.4211 4.09872 19.7411 5.75605 20.7237C7.45738 21.7211 9.30538 22.2197 11.3 22.2197C13.2947 22.2197 15.1427 21.7211 16.844 20.7237C18.5014 19.7411 19.8214 18.4211 20.804 16.7637C21.8014 15.0624 22.3 13.2144 22.3 11.2197C22.3 9.22506 21.8014 7.37706 20.804 5.67573C19.8214 4.01839 18.5014 2.69839 16.844 1.71573C15.1427 0.718393 13.2947 0.219727 11.3 0.219727ZM11.3 20.8557C9.56938 20.8557 7.95605 20.4157 6.46005 19.5357C5.00805 18.6851 3.85672 17.5337 3.00605 16.0817C2.12605 14.5857 1.68605 12.9651 1.68605 11.2197C1.68605 9.47439 2.12605 7.85373 3.00605 6.35773C3.85672 4.90573 5.00805 3.75439 6.46005 2.90373C7.95605 2.02373 9.57305 1.58373 11.311 1.58373C13.049 1.58373 14.666 2.02373 16.162 2.90373C17.614 3.75439 18.7654 4.90573 19.616 6.35773C20.496 7.85373 20.936 9.47439 20.936 11.2197C20.936 12.9651 20.496 14.5857 19.616 16.0817C18.7654 17.5337 17.614 18.6851 16.162 19.5357C14.666 20.4157 13.0454 20.8557 11.3 20.8557ZM11.3 10.5377C10.7427 10.5377 10.2587 10.4021 9.84805 10.1307C9.43738 9.85939 9.23205 9.53673 9.23205 9.16273C9.23205 8.78873 9.43738 8.46606 9.84805 8.19473C10.2587 7.92339 10.7427 7.78773 11.3 7.78773C11.9454 7.78773 12.4807 7.96373 12.906 8.31573C13.0527 8.44773 13.2214 8.51006 13.412 8.50273C13.6027 8.49539 13.7604 8.41839 13.885 8.27173C14.0097 8.12506 14.0647 7.95639 14.05 7.76573C14.0354 7.57506 13.962 7.42106 13.83 7.30373C13.346 6.86373 12.73 6.58506 11.982 6.46773V5.71973C11.982 5.52906 11.916 5.36773 11.784 5.23573C11.652 5.10373 11.4907 5.03773 11.3 5.03773C11.1094 5.03773 10.948 5.10373 10.816 5.23573C10.684 5.36773 10.618 5.52906 10.618 5.71973V6.46773C9.82605 6.58506 9.16972 6.89673 8.64905 7.40273C8.12838 7.90873 7.86805 8.49173 7.86805 9.15173C7.86805 9.65039 8.02205 10.1087 8.33005 10.5267C8.63805 10.9447 9.05605 11.2784 9.58405 11.5277C10.112 11.7771 10.684 11.9017 11.3 11.9017C11.8574 11.9017 12.3414 12.0374 12.752 12.3087C13.1627 12.5801 13.368 12.9027 13.368 13.2767C13.368 13.6507 13.1627 13.9734 12.752 14.2447C12.3414 14.5161 11.8574 14.6517 11.3 14.6517C10.6547 14.6517 10.1194 14.4757 9.69405 14.1237C9.54738 13.9917 9.37872 13.9294 9.18805 13.9367C8.99738 13.9441 8.83972 14.0211 8.71505 14.1677C8.59038 14.3144 8.53538 14.4831 8.55005 14.6737C8.56472 14.8644 8.64538 15.0184 8.79205 15.1357C9.24672 15.5757 9.85538 15.8544 10.618 15.9717V16.7197C10.618 16.9104 10.684 17.0717 10.816 17.2037C10.948 17.3357 11.1094 17.4017 11.3 17.4017C11.4907 17.4017 11.652 17.3357 11.784 17.2037C11.916 17.0717 11.982 16.9104 11.982 16.7197V15.9717C12.774 15.8544 13.4304 15.5427 13.951 15.0367C14.4717 14.5307 14.732 13.9477 14.732 13.2877C14.732 12.7891 14.578 12.3307 14.27 11.9127C13.962 11.4947 13.544 11.1611 13.016 10.9117C12.488 10.6624 11.916 10.5377 11.3 10.5377Z" fill="#202435"/>
</svg>
