<svg width="18" height="22" viewBox="0 0 18 22" fill="none" xmlns="http://www.w3.org/2000/svg">
<path d="M17.7998 19.0172L16.5401 4.8319C16.5131 4.51697 16.2477 4.27853 15.9373 4.27853H13.3458C13.3099 1.91207 11.3753 0 8.99978 0C6.62435 0 4.68979 1.91207 4.6538 4.27853H2.06239C1.74746 4.27853 1.48652 4.51697 1.45953 4.8319L0.199812 19.0172C0.199812 19.0352 0.195312 19.0532 0.195312 19.0712C0.195312 20.6863 1.67548 22 3.49756 22H14.5021C16.3242 22 17.8043 20.6863 17.8043 19.0712C17.8043 19.0532 17.8043 19.0352 17.7998 19.0172ZM8.99978 1.21472C10.7049 1.21472 12.0951 2.58241 12.1311 4.27853H5.86852C5.90452 2.58241 7.2947 1.21472 8.99978 1.21472ZM14.5021 20.7853H3.49756C2.35482 20.7853 1.42803 20.0294 1.41004 19.0982L2.61576 5.49775H4.6493V7.34233C4.6493 7.67975 4.91924 7.94969 5.25666 7.94969C5.59409 7.94969 5.86403 7.67975 5.86403 7.34233V5.49775H12.1311V7.34233C12.1311 7.67975 12.4011 7.94969 12.7385 7.94969C13.0759 7.94969 13.3458 7.67975 13.3458 7.34233V5.49775H15.3794L16.5896 19.0982C16.5716 20.0294 15.6403 20.7853 14.5021 20.7853Z" fill="white" stroke="white" stroke-width="0.1"/>
</svg>
