<svg width="15" height="15" viewBox="0 0 15 15" fill="none" xmlns="http://www.w3.org/2000/svg">
<g clip-path="url(#clip0_1_19)">
<path d="M14.7859 6.62802L11.9159 3.78602C11.8133 3.68335 11.6849 3.63202 11.5309 3.63202C11.3769 3.63202 11.2486 3.68569 11.1459 3.79302C11.0433 3.90035 10.9919 4.02869 10.9919 4.17802C10.9919 4.32735 11.0433 4.45802 11.1459 4.57002L13.0639 6.47402H1.48594C1.33661 6.47402 1.20827 6.52769 1.10094 6.63502C0.993608 6.74235 0.939941 6.87069 0.939941 7.02002C0.939941 7.16935 0.993608 7.29769 1.10094 7.40502C1.20827 7.51235 1.33661 7.56602 1.48594 7.56602H13.0639L11.1459 9.47002C11.0433 9.58202 10.9919 9.71269 10.9919 9.86202C10.9919 10.0114 11.0433 10.1397 11.1459 10.247C11.2486 10.3544 11.3769 10.408 11.5309 10.408C11.6849 10.408 11.8133 10.3567 11.9159 10.254L14.7859 7.41202C14.8886 7.30002 14.9399 7.16935 14.9399 7.02002C14.9399 6.87069 14.8886 6.74002 14.7859 6.62802Z" fill="currentColor"/>
</g>
<defs>
<clipPath id="clip0_1_19">
<rect width="14" height="14" fill="white" transform="matrix(1 0 0 -1 0.939941 14.02)"/>
</clipPath>
</defs>
</svg>
