<svg width="21" height="21" viewBox="0 0 21 21" fill="none" xmlns="http://www.w3.org/2000/svg">
<path d="M19.8258 18.554L16.1298 14.858C16.7538 14.074 17.2338 13.21 17.5698 12.266C17.9378 11.274 18.1218 10.266 18.1218 9.242C18.1218 7.61 17.7138 6.09 16.8978 4.682C16.1138 3.32199 15.0418 2.25 13.6818 1.466C12.2898 0.649996 10.7738 0.241995 9.13383 0.241995C7.49383 0.241995 5.96983 0.649996 4.56183 1.466C3.21783 2.266 2.14583 3.338 1.34583 4.682C0.529826 6.09 0.121826 7.614 0.121826 9.254C0.121826 10.894 0.529826 12.41 1.34583 13.802C2.12983 15.162 3.20183 16.234 4.56183 17.018C5.96983 17.834 7.48983 18.242 9.12183 18.242C10.1778 18.242 11.1898 18.07 12.1578 17.726C13.1258 17.382 13.9858 16.89 14.7378 16.25L18.4338 19.946C18.5298 20.042 18.6418 20.118 18.7698 20.174C18.8978 20.23 19.0178 20.258 19.1298 20.258C19.2418 20.258 19.3618 20.23 19.4898 20.174C19.6178 20.118 19.7298 20.042 19.8258 19.946C20.0338 19.754 20.1378 19.526 20.1378 19.262C20.1378 18.998 20.0338 18.762 19.8258 18.554ZM2.13783 9.242C2.13783 7.962 2.44983 6.786 3.07383 5.714C3.69783 4.658 4.53783 3.818 5.59383 3.19399C6.66583 2.57 7.84183 2.258 9.12183 2.258C10.4018 2.258 11.5858 2.57 12.6738 3.19399C13.7298 3.818 14.5698 4.662 15.1938 5.726C15.8178 6.79 16.1298 7.962 16.1298 9.242C16.1298 10.17 15.9498 11.066 15.5898 11.93C15.2298 12.794 14.7458 13.53 14.1378 14.138C13.4978 14.794 12.7578 15.294 11.9178 15.638C11.0778 15.982 10.1858 16.154 9.24183 16.154C7.92983 16.186 6.72183 15.89 5.61783 15.266C4.54583 14.674 3.69783 13.842 3.07383 12.77C2.44983 11.698 2.13783 10.522 2.13783 9.242Z" fill="#3E445A"/>
</svg>
