<svg width="21" height="21" viewBox="0 0 21 21" fill="none" xmlns="http://www.w3.org/2000/svg">
<path d="M20.52 10.4L15.94 8.86C15.8467 8.82 15.7534 8.82 15.66 8.86L11.08 10.4C11 10.4267 10.9334 10.4767 10.88 10.55C10.8267 10.6233 10.8 10.7067 10.8 10.8V14.28C10.8 15.4933 11.2067 16.6267 12.02 17.68C12.5934 18.44 13.3534 19.1267 14.3 19.74C14.82 20.0733 15.2667 20.3133 15.64 20.46C15.68 20.4867 15.7367 20.5 15.81 20.5C15.8834 20.5 15.9334 20.4933 15.96 20.48L16 20.46C16.9734 20.0067 17.84 19.44 18.6 18.76C20.0667 17.44 20.8 15.9467 20.8 14.28V10.8C20.8 10.7067 20.7734 10.6233 20.72 10.55C20.6667 10.4767 20.6 10.4267 20.52 10.4ZM19.96 14.28C19.96 15.2267 19.66 16.1267 19.06 16.98C18.6067 17.62 18 18.2133 17.24 18.76C16.76 19.1067 16.28 19.3933 15.8 19.62C14.9067 19.18 14.1134 18.64 13.42 18C12.2334 16.8667 11.64 15.6267 11.64 14.28V11.1L15.8 9.7L19.96 11.1V14.28ZM15.42 15.3L18 12.7C18.08 12.62 18.1767 12.58 18.29 12.58C18.4034 12.58 18.5067 12.62 18.6 12.7C18.6934 12.78 18.7367 12.88 18.73 13C18.7234 13.12 18.68 13.22 18.6 13.3L15.68 16.22C15.6 16.3 15.5 16.34 15.38 16.34H15.36C15.2267 16.3133 15.1267 16.26 15.06 16.18L13.4 14.1C13.32 14.0067 13.2867 13.9033 13.3 13.79C13.3134 13.6767 13.3667 13.5833 13.46 13.51C13.5534 13.4367 13.6567 13.4067 13.77 13.42C13.8834 13.4333 13.9734 13.4867 14.04 13.58L15.42 15.3ZM11.78 20.04C11.78 20.16 11.74 20.2633 11.66 20.35C11.58 20.4367 11.48 20.4833 11.36 20.49C11.24 20.4967 11.0534 20.5 10.8 20.5H8.72005C7.50672 20.4867 6.46338 20.0533 5.59005 19.2C4.71672 18.3467 3.96005 17.02 3.32005 15.22C3.00005 14.3267 2.66005 13.6067 2.30005 13.06C2.07338 12.74 1.79338 12.4267 1.46005 12.12C1.24672 11.9333 1.09338 11.7733 1.00005 11.64C0.866715 11.4267 0.800049 11.1867 0.800049 10.92C0.800049 10.6533 0.900049 10.4133 1.10005 10.2C1.44672 9.84 2.04005 9.66 2.88005 9.66C3.45338 9.66 4.02005 9.83333 4.58005 10.18C5.00672 10.46 5.41338 10.8267 5.80005 11.28V3C5.80005 2.53333 5.96338 2.14 6.29005 1.82C6.61672 1.5 7.00672 1.34 7.46005 1.34C7.79338 1.34 8.10672 1.43333 8.40005 1.62C8.50672 1.28667 8.70338 1.01667 8.99005 0.810001C9.27672 0.603334 9.60005 0.5 9.96005 0.5C10.32 0.5 10.6467 0.603334 10.94 0.810001C11.2334 1.01667 11.4334 1.28667 11.54 1.62C11.8067 1.43333 12.1134 1.34 12.46 1.34C12.9267 1.34 13.3234 1.50333 13.65 1.83C13.9767 2.15667 14.14 2.54667 14.14 3V4.06C14.3934 3.91333 14.6667 3.84 14.96 3.84C15.4267 3.84 15.8234 4.00333 16.15 4.33C16.4767 4.65667 16.64 5.04667 16.64 5.5V6.8C16.64 6.90667 16.5967 7 16.51 7.08C16.4234 7.16 16.3267 7.2 16.22 7.2C16.1134 7.2 16.0167 7.16 15.93 7.08C15.8434 7 15.8 6.90667 15.8 6.8V5.5C15.8 5.27333 15.7167 5.07667 15.55 4.91C15.3834 4.74333 15.1867 4.66 14.96 4.66C14.7334 4.66 14.54 4.74333 14.38 4.91C14.22 5.07667 14.14 5.27333 14.14 5.5V7.32C14.14 7.42667 14.0967 7.52333 14.01 7.61C13.9234 7.69667 13.8267 7.74 13.72 7.74C13.6134 7.74 13.5167 7.69667 13.43 7.61C13.3434 7.52333 13.3 7.42667 13.3 7.32V3C13.3 2.77333 13.2167 2.57667 13.05 2.41C12.8834 2.24333 12.6867 2.16 12.46 2.16C12.2334 2.16 12.04 2.24333 11.88 2.41C11.72 2.57667 11.64 2.77333 11.64 3V8.16C11.64 8.26667 11.5967 8.36333 11.51 8.45C11.4234 8.53667 11.3267 8.58 11.22 8.58C11.1134 8.58 11.0167 8.53667 10.93 8.45C10.8434 8.36333 10.8 8.26667 10.8 8.16V2.16C10.8 1.93333 10.7167 1.74 10.55 1.58C10.3834 1.42 10.1867 1.34 9.96005 1.34C9.73338 1.34 9.54005 1.42 9.38005 1.58C9.22005 1.74 9.14005 1.93333 9.14005 2.16V10.08C9.14005 10.2 9.09671 10.3 9.01005 10.38C8.92338 10.46 8.82672 10.5 8.72005 10.5C8.61338 10.5 8.51672 10.46 8.43005 10.38C8.34338 10.3 8.30005 10.2 8.30005 10.08V3C8.30005 2.77333 8.21672 2.57667 8.05005 2.41C7.88338 2.24333 7.68672 2.16 7.46005 2.16C7.23338 2.16 7.04005 2.24333 6.88005 2.41C6.72005 2.57667 6.64005 2.77333 6.64005 3V12.58C6.64005 12.6733 6.61005 12.7567 6.55005 12.83C6.49005 12.9033 6.41338 12.9533 6.32005 12.98C6.22672 13.0067 6.13672 13 6.05005 12.96C5.96338 12.92 5.90005 12.86 5.86005 12.78L5.84005 12.74C5.56005 12.2867 5.24672 11.88 4.90005 11.52C4.23338 10.84 3.56005 10.5 2.88005 10.5C2.46672 10.5 2.14005 10.5533 1.90005 10.66C1.72672 10.74 1.64005 10.83 1.64005 10.93C1.64005 11.03 1.66338 11.1167 1.71005 11.19C1.75672 11.2633 1.86005 11.3733 2.02005 11.52C2.39338 11.8667 2.70005 12.2133 2.94005 12.56C3.38005 13.1733 3.76672 13.9667 4.10005 14.94C4.68672 16.5533 5.35338 17.7433 6.10005 18.51C6.84672 19.2767 7.72005 19.66 8.72005 19.66H11.34C11.4467 19.6467 11.5434 19.6767 11.63 19.75C11.7167 19.8233 11.7667 19.92 11.78 20.04Z" fill="#3E445A"/>
</svg>
