<svg width="21" height="21" viewBox="0 0 21 21" fill="none" xmlns="http://www.w3.org/2000/svg">
<g clip-path="url(#clip0_1_3856)">
<path d="M17.625 1.5H12.8677C11.9662 1.5 11.1188 1.851 10.4812 2.48849L2.13974 10.83C1.72725 11.2425 1.5 11.7908 1.5 12.3765C1.5 12.9593 1.72725 13.5075 2.13974 13.92L7.08 18.8603C7.49249 19.2728 8.04075 19.5 8.62649 19.5C9.20924 19.5 9.7575 19.2728 10.17 18.8603L18.5115 10.5188C19.149 9.88125 19.5 9.03374 19.5 8.13226V3.37499C19.5 2.3415 18.6585 1.5 17.625 1.5ZM18.75 8.13226C18.75 8.83352 18.477 9.49277 17.982 9.98777L9.63976 18.33C9.1005 18.8693 8.15476 18.873 7.611 18.33L2.67 13.389C2.39926 13.119 2.24999 12.759 2.24999 12.3735C2.24999 11.991 2.39923 11.631 2.67 11.3603L11.0115 3.01875C11.508 2.52301 12.1665 2.24999 12.8677 2.24999H17.625C18.2452 2.24999 18.75 2.75473 18.75 3.37499V8.13226Z" fill="#999999" stroke="#999999" stroke-width="0.5"/>
<path d="M15.375 3.75C14.3415 3.75 13.5 4.5915 13.5 5.62499C13.5 6.65848 14.3415 7.49998 15.375 7.49998C16.4085 7.49998 17.25 6.65851 17.25 5.62499C17.25 4.5915 16.4085 3.75 15.375 3.75ZM15.375 6.74999C14.7547 6.74999 14.25 6.24525 14.25 5.62499C14.25 5.00473 14.7547 4.49999 15.375 4.49999C15.9953 4.49999 16.5 5.00473 16.5 5.62499C16.5 6.24525 15.9952 6.74999 15.375 6.74999Z" fill="#999999" stroke="#999999" stroke-width="0.5"/>
</g>
<defs>
<clipPath id="clip0_1_3856">
<rect width="20" height="20" fill="white" transform="translate(0.5 0.5)"/>
</clipPath>
</defs>
</svg>
