<svg width="18" height="19" viewBox="0 0 18 19" fill="none" xmlns="http://www.w3.org/2000/svg">
<g clip-path="url(#clip0_1_957)">
<path d="M14.2199 12.1117C13.8599 11.7277 13.4369 11.5357 12.9509 11.5357C12.4649 11.5357 12.0299 11.7277 11.6459 12.1117L10.4399 13.3177L10.0439 13.1017C9.91192 13.0417 9.82192 12.9937 9.77392 12.9577C8.64592 12.2257 7.60192 11.2777 6.64192 10.1137C6.17392 9.50173 5.83192 8.96173 5.61592 8.49373C5.90392 8.24173 6.19792 7.95373 6.49792 7.62973L6.82192 7.30573C7.21792 6.89773 7.41592 6.45673 7.41592 5.98273C7.41592 5.50873 7.21792 5.07373 6.82192 4.67773L5.77792 3.63373C5.62192 3.47773 5.50792 3.35773 5.43592 3.27373L5.25592 3.09373C5.02792 2.85373 4.84792 2.67973 4.71592 2.57173C4.34392 2.19973 3.92392 2.01373 3.45592 2.01373C2.98792 2.01373 2.55592 2.19973 2.15992 2.57173H2.14192L0.845916 3.88573C0.365916 4.36573 0.0959165 4.95373 0.0359165 5.64973C-0.0480835 6.45373 0.113916 7.38973 0.521916 8.45773C0.821916 9.28573 1.20892 10.0957 1.68292 10.8877C2.15692 11.6797 2.73592 12.4897 3.41992 13.3177C5.09992 15.3097 7.08592 16.8637 9.37792 17.9797C10.6139 18.5677 11.7299 18.8977 12.7259 18.9697H12.9599C13.8479 18.9697 14.5799 18.6577 15.1559 18.0337V18.0157C15.2639 17.8837 15.4379 17.6977 15.6779 17.4577L15.8219 17.3137C15.9779 17.1817 16.1459 17.0197 16.3259 16.8277C16.7099 16.4197 16.9019 15.9757 16.9019 15.4957C16.9019 15.0157 16.7039 14.5897 16.3079 14.2177L14.2199 12.1117ZM15.5879 16.1257C15.5279 16.1977 15.4259 16.2997 15.2819 16.4317L15.1199 16.5937C14.8439 16.8457 14.5979 17.0977 14.3819 17.3497C14.0219 17.7457 13.5479 17.9437 12.9599 17.9437H12.7799C11.9039 17.8837 10.9199 17.5897 9.82792 17.0617C7.65592 16.0057 5.78392 14.5417 4.21192 12.6697C3.56392 11.8897 3.01792 11.1307 2.57392 10.3927C2.12992 9.65473 1.76392 8.89573 1.47592 8.11573C1.29592 7.62373 1.17292 7.18873 1.10692 6.81073C1.04092 6.43273 1.02592 6.06973 1.06192 5.72173C1.09792 5.26573 1.27192 4.89373 1.58392 4.60573L2.87992 3.30973C3.05992 3.12973 3.24892 3.03973 3.44692 3.03973C3.64492 3.03973 3.83392 3.12973 4.01392 3.30973C4.12192 3.40573 4.27192 3.55573 4.46392 3.75973L4.82392 4.11973C4.93192 4.21573 5.00992 4.29373 5.05792 4.35373L6.10192 5.39773C6.49792 5.78173 6.49792 6.17173 6.10192 6.56773C6.02992 6.65173 5.92192 6.76573 5.77792 6.90973C5.35792 7.32973 5.03992 7.63573 4.82392 7.82773L4.80592 7.84573C4.56592 8.08573 4.49992 8.37373 4.60792 8.70973V8.74573C4.87192 9.36973 5.28592 10.0357 5.84992 10.7437C6.89392 12.0397 8.01592 13.0657 9.21592 13.8217L9.79192 14.1277C9.92392 14.1877 10.0139 14.2357 10.0619 14.2717L10.1159 14.3077C10.2599 14.3677 10.3799 14.3977 10.4759 14.3977C10.6919 14.3977 10.8899 14.3077 11.0699 14.1277L12.3659 12.8317C12.5579 12.6397 12.7439 12.5437 12.9239 12.5437C13.1039 12.5437 13.2899 12.6397 13.4819 12.8317L15.5879 14.9377C15.9719 15.3097 15.9719 15.7057 15.5879 16.1257ZM9.71992 5.25373C10.7399 5.42173 11.6129 5.86873 12.3389 6.59473C13.0649 7.32073 13.5239 8.19973 13.7159 9.23173C13.7279 9.35173 13.7819 9.45373 13.8779 9.53773C13.9739 9.62173 14.0879 9.66373 14.2199 9.66373L14.3099 9.64573C14.4419 9.62173 14.5499 9.55273 14.6339 9.43873C14.7179 9.32473 14.7479 9.19573 14.7239 9.05173C14.6279 8.45173 14.4389 7.88173 14.1569 7.34173C13.8749 6.80173 13.5179 6.31573 13.0859 5.88373C12.6539 5.45173 12.1649 5.09473 11.6189 4.81273C11.0729 4.53073 10.4999 4.34173 9.89992 4.24573C9.76792 4.22173 9.64192 4.24873 9.52192 4.32673C9.40192 4.40473 9.32992 4.51573 9.30592 4.65973C9.28192 4.80373 9.30892 4.93273 9.38692 5.04673C9.46492 5.16073 9.57592 5.22973 9.71992 5.25373ZM17.9819 8.90773C17.8139 7.91173 17.4989 6.97273 17.0369 6.09073C16.5749 5.20873 15.9839 4.40773 15.2639 3.68773C14.5439 2.96773 13.7429 2.37673 12.8609 1.91473C11.9789 1.45273 11.0399 1.13773 10.0439 0.969727C9.91192 0.945726 9.78592 0.975727 9.66592 1.05973C9.54592 1.14373 9.47392 1.25473 9.44992 1.39273C9.42592 1.53073 9.45592 1.65973 9.53992 1.77973C9.62392 1.89973 9.73792 1.97173 9.88192 1.99573C10.7579 2.13973 11.5949 2.41873 12.3929 2.83273C13.1909 3.24673 13.9109 3.77173 14.5529 4.40773C15.1949 5.04373 15.7199 5.75773 16.1279 6.54973C16.5359 7.34173 16.8179 8.18173 16.9739 9.06973C16.9859 9.18973 17.0399 9.29173 17.1359 9.37573C17.2319 9.45973 17.3459 9.50173 17.4779 9.50173H17.5679C17.6999 9.47773 17.8079 9.40573 17.8919 9.28573C17.9759 9.16573 18.0059 9.03973 17.9819 8.90773Z" fill="#202435"/>
</g>
<defs>
<clipPath id="clip0_1_957">
<rect width="18" height="18" fill="white" transform="matrix(1 0 0 -1 0 18.9697)"/>
</clipPath>
</defs>
</svg>
