<svg width="34" height="35" viewBox="0 0 34 35" fill="none" xmlns="http://www.w3.org/2000/svg">
<rect x="0.5" y="0.969727" width="33" height="33" rx="16.5" stroke="#E4E5EE"/>
<path d="M23.6 12.6399C23.23 13.1799 22.78 13.6449 22.25 14.0349V14.3799C22.25 15.1099 22.145 15.8349 21.935 16.5549C21.725 17.2749 21.405 17.9699 20.975 18.6399C20.545 19.3099 20.03 19.8949 19.43 20.3949C18.83 20.8949 18.11 21.3049 17.27 21.6249C16.43 21.9449 15.525 22.0949 14.555 22.0749C13.045 22.0749 11.665 21.6699 10.415 20.8599C10.605 20.8799 10.82 20.8899 11.06 20.8899C12.32 20.8899 13.44 20.5049 14.42 19.7349C13.83 19.7249 13.305 19.5449 12.845 19.1949C12.385 18.8449 12.065 18.3999 11.885 17.8599C12.075 17.8899 12.245 17.9049 12.395 17.9049C12.635 17.9049 12.875 17.8749 13.115 17.8149C12.485 17.6849 11.965 17.3749 11.555 16.8849C11.145 16.3949 10.94 15.8199 10.94 15.1599V15.1299C11.32 15.3399 11.73 15.4549 12.17 15.4749C11.8 15.2249 11.505 14.9049 11.285 14.5149C11.065 14.1249 10.955 13.6899 10.955 13.2099C10.955 12.7299 11.08 12.2799 11.33 11.8599C12.01 12.6899 12.83 13.3549 13.79 13.8549C14.75 14.3549 15.79 14.6299 16.91 14.6799C16.86 14.4699 16.835 14.2649 16.835 14.0649C16.835 13.3149 17.1 12.6799 17.63 12.1599C18.16 11.6399 18.795 11.3749 19.535 11.3649C20.325 11.3649 20.985 11.6499 21.515 12.2199C22.125 12.0999 22.7 11.8799 23.24 11.5599C23.03 12.1999 22.63 12.6999 22.04 13.0599C22.56 12.9999 23.08 12.8599 23.6 12.6399Z" fill="#35AFA0"/>
</svg>
