<svg width="19" height="20" viewBox="0 0 19 20" fill="none" xmlns="http://www.w3.org/2000/svg">
<path d="M11.875 10.03C11.875 10.6599 11.6248 11.264 11.1794 11.7094C10.734 12.1548 10.1299 12.405 9.5 12.405C8.87011 12.405 8.26602 12.1548 7.82062 11.7094C7.37522 11.264 7.125 10.6599 7.125 10.03C7.125 9.40014 7.37522 8.79605 7.82062 8.35065C8.26602 7.90525 8.87011 7.65503 9.5 7.65503C10.1299 7.65503 10.734 7.90525 11.1794 8.35065C11.6248 8.79605 11.875 9.40014 11.875 10.03Z" stroke="white" stroke-width="1.58333" stroke-linecap="round" stroke-linejoin="round"/>
<path d="M1.94629 10.0301C2.95487 6.81828 5.95608 4.4884 9.50037 4.4884C13.0455 4.4884 16.0459 6.81828 17.0545 10.0301C16.0459 13.2419 13.0455 15.5717 9.50037 15.5717C5.95608 15.5717 2.95487 13.2419 1.94629 10.0301Z" stroke="white" stroke-width="1.58333" stroke-linecap="round" stroke-linejoin="round"/>
</svg>
