<svg width="22" height="22" viewBox="0 0 22 22" fill="none" xmlns="http://www.w3.org/2000/svg">
<path d="M15.8447 0.84375H15.7939C13.7779 0.84375 11.9955 1.91016 10.9697 3.48438C9.94394 1.91016 8.16152 0.84375 6.14551 0.84375H6.09473C2.95137 0.874219 0.407227 3.42852 0.407227 6.58203C0.407227 8.46094 1.22988 11.127 2.83457 13.3207C5.8916 17.5 10.9697 21.1562 10.9697 21.1562C10.9697 21.1562 16.0479 17.5 19.1049 13.3207C20.7096 11.127 21.5322 8.46094 21.5322 6.58203C21.5322 3.42852 18.9881 0.874219 15.8447 0.84375ZM17.9572 12.4828C15.7939 15.4434 12.4982 18.1754 10.9697 19.3687C9.44121 18.1754 6.14551 15.4383 3.98223 12.4777C2.49434 10.4465 1.8291 8.05469 1.8291 6.58203C1.8291 5.43437 2.27598 4.35781 3.07832 3.54531C3.88574 2.73281 4.95723 2.28086 6.10488 2.2707H6.15059C6.87676 2.2707 7.59785 2.45859 8.2377 2.81914C8.85723 3.16953 9.39551 3.66719 9.78145 4.26641C10.0455 4.66758 10.4924 4.91133 10.9748 4.91133C11.4572 4.91133 11.9041 4.66758 12.1682 4.26641C12.5592 3.66719 13.0924 3.16953 13.7119 2.81914C14.3518 2.45859 15.0729 2.2707 15.799 2.2707H15.8447C16.9873 2.28086 18.0639 2.73281 18.8713 3.54531C19.6787 4.35781 20.1205 5.43945 20.1205 6.58203C20.1104 8.05469 19.4451 10.4465 17.9572 12.4828Z" fill="black"/>
</svg>
